<?xml version="1.0" encoding="utf-8" standalone="no"?>
<!DOCTYPE svg PUBLIC "-//W3C//DTD SVG 1.1//EN"
  "http://www.w3.org/Graphics/SVG/1.1/DTD/svg11.dtd">
<!-- Created with matplotlib (https://matplotlib.org/) -->
<svg height="504pt" version="1.1" viewBox="0 0 1080 504" width="1080pt" xmlns="http://www.w3.org/2000/svg" xmlns:xlink="http://www.w3.org/1999/xlink">
 <defs>
  <style type="text/css">
*{stroke-linecap:butt;stroke-linejoin:round;}
  </style>
 </defs>
 <g id="figure_1">
  <g id="patch_1">
   <path d="M 0 504 
L 1080 504 
L 1080 0 
L 0 0 
z
" style="fill:#ffffff;"/>
  </g>
  <g id="axes_1">
   <g id="patch_2">
    <path d="M 135 441 
L 972 441 
L 972 60.48 
L 135 60.48 
z
" style="fill:#ffffff;"/>
   </g>
   <g id="matplotlib.axis_1">
    <g id="xtick_1">
     <g id="line2d_1">
      <path clip-path="url(#p4d20e1a1eb)" d="M 173.045455 441 
L 173.045455 60.48 
" style="fill:none;stroke:#cccccc;stroke-linecap:round;stroke-width:0.8;"/>
     </g>
     <g id="text_1">
      <!-- 0 -->
      <defs>
       <path d="M 31.78125 66.40625 
Q 24.171875 66.40625 20.328125 58.90625 
Q 16.5 51.421875 16.5 36.375 
Q 16.5 21.390625 20.328125 13.890625 
Q 24.171875 6.390625 31.78125 6.390625 
Q 39.453125 6.390625 43.28125 13.890625 
Q 47.125 21.390625 47.125 36.375 
Q 47.125 51.421875 43.28125 58.90625 
Q 39.453125 66.40625 31.78125 66.40625 
z
M 31.78125 74.21875 
Q 44.046875 74.21875 50.515625 64.515625 
Q 56.984375 54.828125 56.984375 36.375 
Q 56.984375 17.96875 50.515625 8.265625 
Q 44.046875 -1.421875 31.78125 -1.421875 
Q 19.53125 -1.421875 13.0625 8.265625 
Q 6.59375 17.96875 6.59375 36.375 
Q 6.59375 54.828125 13.0625 64.515625 
Q 19.53125 74.21875 31.78125 74.21875 
z
" id="DejaVuSans-48"/>
      </defs>
      <g style="fill:#262626;" transform="translate(169.864205 455.598437)scale(0.1 -0.1)">
       <use xlink:href="#DejaVuSans-48"/>
      </g>
     </g>
    </g>
    <g id="xtick_2">
     <g id="line2d_2">
      <path clip-path="url(#p4d20e1a1eb)" d="M 325.257715 441 
L 325.257715 60.48 
" style="fill:none;stroke:#cccccc;stroke-linecap:round;stroke-width:0.8;"/>
     </g>
     <g id="text_2">
      <!-- 1000 -->
      <defs>
       <path d="M 12.40625 8.296875 
L 28.515625 8.296875 
L 28.515625 63.921875 
L 10.984375 60.40625 
L 10.984375 69.390625 
L 28.421875 72.90625 
L 38.28125 72.90625 
L 38.28125 8.296875 
L 54.390625 8.296875 
L 54.390625 0 
L 12.40625 0 
z
" id="DejaVuSans-49"/>
      </defs>
      <g style="fill:#262626;" transform="translate(312.532715 455.598437)scale(0.1 -0.1)">
       <use xlink:href="#DejaVuSans-49"/>
       <use x="63.623047" xlink:href="#DejaVuSans-48"/>
       <use x="127.246094" xlink:href="#DejaVuSans-48"/>
       <use x="190.869141" xlink:href="#DejaVuSans-48"/>
      </g>
     </g>
    </g>
    <g id="xtick_3">
     <g id="line2d_3">
      <path clip-path="url(#p4d20e1a1eb)" d="M 477.469976 441 
L 477.469976 60.48 
" style="fill:none;stroke:#cccccc;stroke-linecap:round;stroke-width:0.8;"/>
     </g>
     <g id="text_3">
      <!-- 2000 -->
      <defs>
       <path d="M 19.1875 8.296875 
L 53.609375 8.296875 
L 53.609375 0 
L 7.328125 0 
L 7.328125 8.296875 
Q 12.9375 14.109375 22.625 23.890625 
Q 32.328125 33.6875 34.8125 36.53125 
Q 39.546875 41.84375 41.421875 45.53125 
Q 43.3125 49.21875 43.3125 52.78125 
Q 43.3125 58.59375 39.234375 62.25 
Q 35.15625 65.921875 28.609375 65.921875 
Q 23.96875 65.921875 18.8125 64.3125 
Q 13.671875 62.703125 7.8125 59.421875 
L 7.8125 69.390625 
Q 13.765625 71.78125 18.9375 73 
Q 24.125 74.21875 28.421875 74.21875 
Q 39.75 74.21875 46.484375 68.546875 
Q 53.21875 62.890625 53.21875 53.421875 
Q 53.21875 48.921875 51.53125 44.890625 
Q 49.859375 40.875 45.40625 35.40625 
Q 44.1875 33.984375 37.640625 27.21875 
Q 31.109375 20.453125 19.1875 8.296875 
z
" id="DejaVuSans-50"/>
      </defs>
      <g style="fill:#262626;" transform="translate(464.744976 455.598437)scale(0.1 -0.1)">
       <use xlink:href="#DejaVuSans-50"/>
       <use x="63.623047" xlink:href="#DejaVuSans-48"/>
       <use x="127.246094" xlink:href="#DejaVuSans-48"/>
       <use x="190.869141" xlink:href="#DejaVuSans-48"/>
      </g>
     </g>
    </g>
    <g id="xtick_4">
     <g id="line2d_4">
      <path clip-path="url(#p4d20e1a1eb)" d="M 629.682236 441 
L 629.682236 60.48 
" style="fill:none;stroke:#cccccc;stroke-linecap:round;stroke-width:0.8;"/>
     </g>
     <g id="text_4">
      <!-- 3000 -->
      <defs>
       <path d="M 40.578125 39.3125 
Q 47.65625 37.796875 51.625 33 
Q 55.609375 28.21875 55.609375 21.1875 
Q 55.609375 10.40625 48.1875 4.484375 
Q 40.765625 -1.421875 27.09375 -1.421875 
Q 22.515625 -1.421875 17.65625 -0.515625 
Q 12.796875 0.390625 7.625 2.203125 
L 7.625 11.71875 
Q 11.71875 9.328125 16.59375 8.109375 
Q 21.484375 6.890625 26.8125 6.890625 
Q 36.078125 6.890625 40.9375 10.546875 
Q 45.796875 14.203125 45.796875 21.1875 
Q 45.796875 27.640625 41.28125 31.265625 
Q 36.765625 34.90625 28.71875 34.90625 
L 20.21875 34.90625 
L 20.21875 43.015625 
L 29.109375 43.015625 
Q 36.375 43.015625 40.234375 45.921875 
Q 44.09375 48.828125 44.09375 54.296875 
Q 44.09375 59.90625 40.109375 62.90625 
Q 36.140625 65.921875 28.71875 65.921875 
Q 24.65625 65.921875 20.015625 65.03125 
Q 15.375 64.15625 9.8125 62.3125 
L 9.8125 71.09375 
Q 15.4375 72.65625 20.34375 73.4375 
Q 25.25 74.21875 29.59375 74.21875 
Q 40.828125 74.21875 47.359375 69.109375 
Q 53.90625 64.015625 53.90625 55.328125 
Q 53.90625 49.265625 50.4375 45.09375 
Q 46.96875 40.921875 40.578125 39.3125 
z
" id="DejaVuSans-51"/>
      </defs>
      <g style="fill:#262626;" transform="translate(616.957236 455.598437)scale(0.1 -0.1)">
       <use xlink:href="#DejaVuSans-51"/>
       <use x="63.623047" xlink:href="#DejaVuSans-48"/>
       <use x="127.246094" xlink:href="#DejaVuSans-48"/>
       <use x="190.869141" xlink:href="#DejaVuSans-48"/>
      </g>
     </g>
    </g>
    <g id="xtick_5">
     <g id="line2d_5">
      <path clip-path="url(#p4d20e1a1eb)" d="M 781.894497 441 
L 781.894497 60.48 
" style="fill:none;stroke:#cccccc;stroke-linecap:round;stroke-width:0.8;"/>
     </g>
     <g id="text_5">
      <!-- 4000 -->
      <defs>
       <path d="M 37.796875 64.3125 
L 12.890625 25.390625 
L 37.796875 25.390625 
z
M 35.203125 72.90625 
L 47.609375 72.90625 
L 47.609375 25.390625 
L 58.015625 25.390625 
L 58.015625 17.1875 
L 47.609375 17.1875 
L 47.609375 0 
L 37.796875 0 
L 37.796875 17.1875 
L 4.890625 17.1875 
L 4.890625 26.703125 
z
" id="DejaVuSans-52"/>
      </defs>
      <g style="fill:#262626;" transform="translate(769.169497 455.598437)scale(0.1 -0.1)">
       <use xlink:href="#DejaVuSans-52"/>
       <use x="63.623047" xlink:href="#DejaVuSans-48"/>
       <use x="127.246094" xlink:href="#DejaVuSans-48"/>
       <use x="190.869141" xlink:href="#DejaVuSans-48"/>
      </g>
     </g>
    </g>
    <g id="xtick_6">
     <g id="line2d_6">
      <path clip-path="url(#p4d20e1a1eb)" d="M 934.106758 441 
L 934.106758 60.48 
" style="fill:none;stroke:#cccccc;stroke-linecap:round;stroke-width:0.8;"/>
     </g>
     <g id="text_6">
      <!-- 5000 -->
      <defs>
       <path d="M 10.796875 72.90625 
L 49.515625 72.90625 
L 49.515625 64.59375 
L 19.828125 64.59375 
L 19.828125 46.734375 
Q 21.96875 47.46875 24.109375 47.828125 
Q 26.265625 48.1875 28.421875 48.1875 
Q 40.625 48.1875 47.75 41.5 
Q 54.890625 34.8125 54.890625 23.390625 
Q 54.890625 11.625 47.5625 5.09375 
Q 40.234375 -1.421875 26.90625 -1.421875 
Q 22.3125 -1.421875 17.546875 -0.640625 
Q 12.796875 0.140625 7.71875 1.703125 
L 7.71875 11.625 
Q 12.109375 9.234375 16.796875 8.0625 
Q 21.484375 6.890625 26.703125 6.890625 
Q 35.15625 6.890625 40.078125 11.328125 
Q 45.015625 15.765625 45.015625 23.390625 
Q 45.015625 31 40.078125 35.4375 
Q 35.15625 39.890625 26.703125 39.890625 
Q 22.75 39.890625 18.8125 39.015625 
Q 14.890625 38.140625 10.796875 36.28125 
z
" id="DejaVuSans-53"/>
      </defs>
      <g style="fill:#262626;" transform="translate(921.381758 455.598437)scale(0.1 -0.1)">
       <use xlink:href="#DejaVuSans-53"/>
       <use x="63.623047" xlink:href="#DejaVuSans-48"/>
       <use x="127.246094" xlink:href="#DejaVuSans-48"/>
       <use x="190.869141" xlink:href="#DejaVuSans-48"/>
      </g>
     </g>
    </g>
    <g id="text_7">
     <!-- Itération -->
     <defs>
      <path d="M 9.8125 72.90625 
L 19.671875 72.90625 
L 19.671875 0 
L 9.8125 0 
z
" id="DejaVuSans-73"/>
      <path d="M 18.3125 70.21875 
L 18.3125 54.6875 
L 36.8125 54.6875 
L 36.8125 47.703125 
L 18.3125 47.703125 
L 18.3125 18.015625 
Q 18.3125 11.328125 20.140625 9.421875 
Q 21.96875 7.515625 27.59375 7.515625 
L 36.8125 7.515625 
L 36.8125 0 
L 27.59375 0 
Q 17.1875 0 13.234375 3.875 
Q 9.28125 7.765625 9.28125 18.015625 
L 9.28125 47.703125 
L 2.6875 47.703125 
L 2.6875 54.6875 
L 9.28125 54.6875 
L 9.28125 70.21875 
z
" id="DejaVuSans-116"/>
      <path d="M 56.203125 29.59375 
L 56.203125 25.203125 
L 14.890625 25.203125 
Q 15.484375 15.921875 20.484375 11.0625 
Q 25.484375 6.203125 34.421875 6.203125 
Q 39.59375 6.203125 44.453125 7.46875 
Q 49.3125 8.734375 54.109375 11.28125 
L 54.109375 2.78125 
Q 49.265625 0.734375 44.1875 -0.34375 
Q 39.109375 -1.421875 33.890625 -1.421875 
Q 20.796875 -1.421875 13.15625 6.1875 
Q 5.515625 13.8125 5.515625 26.8125 
Q 5.515625 40.234375 12.765625 48.109375 
Q 20.015625 56 32.328125 56 
Q 43.359375 56 49.78125 48.890625 
Q 56.203125 41.796875 56.203125 29.59375 
z
M 47.21875 32.234375 
Q 47.125 39.59375 43.09375 43.984375 
Q 39.0625 48.390625 32.421875 48.390625 
Q 24.90625 48.390625 20.390625 44.140625 
Q 15.875 39.890625 15.1875 32.171875 
z
M 38.578125 79.984375 
L 48.296875 79.984375 
L 32.375 61.625 
L 24.90625 61.625 
z
" id="DejaVuSans-233"/>
      <path d="M 41.109375 46.296875 
Q 39.59375 47.171875 37.8125 47.578125 
Q 36.03125 48 33.890625 48 
Q 26.265625 48 22.1875 43.046875 
Q 18.109375 38.09375 18.109375 28.8125 
L 18.109375 0 
L 9.078125 0 
L 9.078125 54.6875 
L 18.109375 54.6875 
L 18.109375 46.1875 
Q 20.953125 51.171875 25.484375 53.578125 
Q 30.03125 56 36.53125 56 
Q 37.453125 56 38.578125 55.875 
Q 39.703125 55.765625 41.0625 55.515625 
z
" id="DejaVuSans-114"/>
      <path d="M 34.28125 27.484375 
Q 23.390625 27.484375 19.1875 25 
Q 14.984375 22.515625 14.984375 16.5 
Q 14.984375 11.71875 18.140625 8.90625 
Q 21.296875 6.109375 26.703125 6.109375 
Q 34.1875 6.109375 38.703125 11.40625 
Q 43.21875 16.703125 43.21875 25.484375 
L 43.21875 27.484375 
z
M 52.203125 31.203125 
L 52.203125 0 
L 43.21875 0 
L 43.21875 8.296875 
Q 40.140625 3.328125 35.546875 0.953125 
Q 30.953125 -1.421875 24.3125 -1.421875 
Q 15.921875 -1.421875 10.953125 3.296875 
Q 6 8.015625 6 15.921875 
Q 6 25.140625 12.171875 29.828125 
Q 18.359375 34.515625 30.609375 34.515625 
L 43.21875 34.515625 
L 43.21875 35.40625 
Q 43.21875 41.609375 39.140625 45 
Q 35.0625 48.390625 27.6875 48.390625 
Q 23 48.390625 18.546875 47.265625 
Q 14.109375 46.140625 10.015625 43.890625 
L 10.015625 52.203125 
Q 14.9375 54.109375 19.578125 55.046875 
Q 24.21875 56 28.609375 56 
Q 40.484375 56 46.34375 49.84375 
Q 52.203125 43.703125 52.203125 31.203125 
z
" id="DejaVuSans-97"/>
      <path d="M 9.421875 54.6875 
L 18.40625 54.6875 
L 18.40625 0 
L 9.421875 0 
z
M 9.421875 75.984375 
L 18.40625 75.984375 
L 18.40625 64.59375 
L 9.421875 64.59375 
z
" id="DejaVuSans-105"/>
      <path d="M 30.609375 48.390625 
Q 23.390625 48.390625 19.1875 42.75 
Q 14.984375 37.109375 14.984375 27.296875 
Q 14.984375 17.484375 19.15625 11.84375 
Q 23.34375 6.203125 30.609375 6.203125 
Q 37.796875 6.203125 41.984375 11.859375 
Q 46.1875 17.53125 46.1875 27.296875 
Q 46.1875 37.015625 41.984375 42.703125 
Q 37.796875 48.390625 30.609375 48.390625 
z
M 30.609375 56 
Q 42.328125 56 49.015625 48.375 
Q 55.71875 40.765625 55.71875 27.296875 
Q 55.71875 13.875 49.015625 6.21875 
Q 42.328125 -1.421875 30.609375 -1.421875 
Q 18.84375 -1.421875 12.171875 6.21875 
Q 5.515625 13.875 5.515625 27.296875 
Q 5.515625 40.765625 12.171875 48.375 
Q 18.84375 56 30.609375 56 
z
" id="DejaVuSans-111"/>
      <path d="M 54.890625 33.015625 
L 54.890625 0 
L 45.90625 0 
L 45.90625 32.71875 
Q 45.90625 40.484375 42.875 44.328125 
Q 39.84375 48.1875 33.796875 48.1875 
Q 26.515625 48.1875 22.3125 43.546875 
Q 18.109375 38.921875 18.109375 30.90625 
L 18.109375 0 
L 9.078125 0 
L 9.078125 54.6875 
L 18.109375 54.6875 
L 18.109375 46.1875 
Q 21.34375 51.125 25.703125 53.5625 
Q 30.078125 56 35.796875 56 
Q 45.21875 56 50.046875 50.171875 
Q 54.890625 44.34375 54.890625 33.015625 
z
" id="DejaVuSans-110"/>
     </defs>
     <g style="fill:#262626;" transform="translate(523.807969 472.315938)scale(0.14 -0.14)">
      <use xlink:href="#DejaVuSans-73"/>
      <use x="29.492188" xlink:href="#DejaVuSans-116"/>
      <use x="68.701172" xlink:href="#DejaVuSans-233"/>
      <use x="130.224609" xlink:href="#DejaVuSans-114"/>
      <use x="171.337891" xlink:href="#DejaVuSans-97"/>
      <use x="232.617188" xlink:href="#DejaVuSans-116"/>
      <use x="271.826172" xlink:href="#DejaVuSans-105"/>
      <use x="299.609375" xlink:href="#DejaVuSans-111"/>
      <use x="360.791016" xlink:href="#DejaVuSans-110"/>
     </g>
    </g>
   </g>
   <g id="matplotlib.axis_2">
    <g id="ytick_1">
     <g id="line2d_7">
      <path clip-path="url(#p4d20e1a1eb)" d="M 135 423.703636 
L 972 423.703636 
" style="fill:none;stroke:#cccccc;stroke-linecap:round;stroke-width:0.8;"/>
     </g>
     <g id="text_8">
      <!-- 0 -->
      <g style="fill:#262626;" transform="translate(121.6375 427.502855)scale(0.1 -0.1)">
       <use xlink:href="#DejaVuSans-48"/>
      </g>
     </g>
    </g>
    <g id="ytick_2">
     <g id="line2d_8">
      <path clip-path="url(#p4d20e1a1eb)" d="M 135 378.543513 
L 972 378.543513 
" style="fill:none;stroke:#cccccc;stroke-linecap:round;stroke-width:0.8;"/>
     </g>
     <g id="text_9">
      <!-- 200 -->
      <g style="fill:#262626;" transform="translate(108.9125 382.342732)scale(0.1 -0.1)">
       <use xlink:href="#DejaVuSans-50"/>
       <use x="63.623047" xlink:href="#DejaVuSans-48"/>
       <use x="127.246094" xlink:href="#DejaVuSans-48"/>
      </g>
     </g>
    </g>
    <g id="ytick_3">
     <g id="line2d_9">
      <path clip-path="url(#p4d20e1a1eb)" d="M 135 333.38339 
L 972 333.38339 
" style="fill:none;stroke:#cccccc;stroke-linecap:round;stroke-width:0.8;"/>
     </g>
     <g id="text_10">
      <!-- 400 -->
      <g style="fill:#262626;" transform="translate(108.9125 337.182609)scale(0.1 -0.1)">
       <use xlink:href="#DejaVuSans-52"/>
       <use x="63.623047" xlink:href="#DejaVuSans-48"/>
       <use x="127.246094" xlink:href="#DejaVuSans-48"/>
      </g>
     </g>
    </g>
    <g id="ytick_4">
     <g id="line2d_10">
      <path clip-path="url(#p4d20e1a1eb)" d="M 135 288.223267 
L 972 288.223267 
" style="fill:none;stroke:#cccccc;stroke-linecap:round;stroke-width:0.8;"/>
     </g>
     <g id="text_11">
      <!-- 600 -->
      <defs>
       <path d="M 33.015625 40.375 
Q 26.375 40.375 22.484375 35.828125 
Q 18.609375 31.296875 18.609375 23.390625 
Q 18.609375 15.53125 22.484375 10.953125 
Q 26.375 6.390625 33.015625 6.390625 
Q 39.65625 6.390625 43.53125 10.953125 
Q 47.40625 15.53125 47.40625 23.390625 
Q 47.40625 31.296875 43.53125 35.828125 
Q 39.65625 40.375 33.015625 40.375 
z
M 52.59375 71.296875 
L 52.59375 62.3125 
Q 48.875 64.0625 45.09375 64.984375 
Q 41.3125 65.921875 37.59375 65.921875 
Q 27.828125 65.921875 22.671875 59.328125 
Q 17.53125 52.734375 16.796875 39.40625 
Q 19.671875 43.65625 24.015625 45.921875 
Q 28.375 48.1875 33.59375 48.1875 
Q 44.578125 48.1875 50.953125 41.515625 
Q 57.328125 34.859375 57.328125 23.390625 
Q 57.328125 12.15625 50.6875 5.359375 
Q 44.046875 -1.421875 33.015625 -1.421875 
Q 20.359375 -1.421875 13.671875 8.265625 
Q 6.984375 17.96875 6.984375 36.375 
Q 6.984375 53.65625 15.1875 63.9375 
Q 23.390625 74.21875 37.203125 74.21875 
Q 40.921875 74.21875 44.703125 73.484375 
Q 48.484375 72.75 52.59375 71.296875 
z
" id="DejaVuSans-54"/>
      </defs>
      <g style="fill:#262626;" transform="translate(108.9125 292.022486)scale(0.1 -0.1)">
       <use xlink:href="#DejaVuSans-54"/>
       <use x="63.623047" xlink:href="#DejaVuSans-48"/>
       <use x="127.246094" xlink:href="#DejaVuSans-48"/>
      </g>
     </g>
    </g>
    <g id="ytick_5">
     <g id="line2d_11">
      <path clip-path="url(#p4d20e1a1eb)" d="M 135 243.063144 
L 972 243.063144 
" style="fill:none;stroke:#cccccc;stroke-linecap:round;stroke-width:0.8;"/>
     </g>
     <g id="text_12">
      <!-- 800 -->
      <defs>
       <path d="M 31.78125 34.625 
Q 24.75 34.625 20.71875 30.859375 
Q 16.703125 27.09375 16.703125 20.515625 
Q 16.703125 13.921875 20.71875 10.15625 
Q 24.75 6.390625 31.78125 6.390625 
Q 38.8125 6.390625 42.859375 10.171875 
Q 46.921875 13.96875 46.921875 20.515625 
Q 46.921875 27.09375 42.890625 30.859375 
Q 38.875 34.625 31.78125 34.625 
z
M 21.921875 38.8125 
Q 15.578125 40.375 12.03125 44.71875 
Q 8.5 49.078125 8.5 55.328125 
Q 8.5 64.0625 14.71875 69.140625 
Q 20.953125 74.21875 31.78125 74.21875 
Q 42.671875 74.21875 48.875 69.140625 
Q 55.078125 64.0625 55.078125 55.328125 
Q 55.078125 49.078125 51.53125 44.71875 
Q 48 40.375 41.703125 38.8125 
Q 48.828125 37.15625 52.796875 32.3125 
Q 56.78125 27.484375 56.78125 20.515625 
Q 56.78125 9.90625 50.3125 4.234375 
Q 43.84375 -1.421875 31.78125 -1.421875 
Q 19.734375 -1.421875 13.25 4.234375 
Q 6.78125 9.90625 6.78125 20.515625 
Q 6.78125 27.484375 10.78125 32.3125 
Q 14.796875 37.15625 21.921875 38.8125 
z
M 18.3125 54.390625 
Q 18.3125 48.734375 21.84375 45.5625 
Q 25.390625 42.390625 31.78125 42.390625 
Q 38.140625 42.390625 41.71875 45.5625 
Q 45.3125 48.734375 45.3125 54.390625 
Q 45.3125 60.0625 41.71875 63.234375 
Q 38.140625 66.40625 31.78125 66.40625 
Q 25.390625 66.40625 21.84375 63.234375 
Q 18.3125 60.0625 18.3125 54.390625 
z
" id="DejaVuSans-56"/>
      </defs>
      <g style="fill:#262626;" transform="translate(108.9125 246.862363)scale(0.1 -0.1)">
       <use xlink:href="#DejaVuSans-56"/>
       <use x="63.623047" xlink:href="#DejaVuSans-48"/>
       <use x="127.246094" xlink:href="#DejaVuSans-48"/>
      </g>
     </g>
    </g>
    <g id="ytick_6">
     <g id="line2d_12">
      <path clip-path="url(#p4d20e1a1eb)" d="M 135 197.903021 
L 972 197.903021 
" style="fill:none;stroke:#cccccc;stroke-linecap:round;stroke-width:0.8;"/>
     </g>
     <g id="text_13">
      <!-- 1000 -->
      <g style="fill:#262626;" transform="translate(102.55 201.70224)scale(0.1 -0.1)">
       <use xlink:href="#DejaVuSans-49"/>
       <use x="63.623047" xlink:href="#DejaVuSans-48"/>
       <use x="127.246094" xlink:href="#DejaVuSans-48"/>
       <use x="190.869141" xlink:href="#DejaVuSans-48"/>
      </g>
     </g>
    </g>
    <g id="ytick_7">
     <g id="line2d_13">
      <path clip-path="url(#p4d20e1a1eb)" d="M 135 152.742898 
L 972 152.742898 
" style="fill:none;stroke:#cccccc;stroke-linecap:round;stroke-width:0.8;"/>
     </g>
     <g id="text_14">
      <!-- 1200 -->
      <g style="fill:#262626;" transform="translate(102.55 156.542117)scale(0.1 -0.1)">
       <use xlink:href="#DejaVuSans-49"/>
       <use x="63.623047" xlink:href="#DejaVuSans-50"/>
       <use x="127.246094" xlink:href="#DejaVuSans-48"/>
       <use x="190.869141" xlink:href="#DejaVuSans-48"/>
      </g>
     </g>
    </g>
    <g id="ytick_8">
     <g id="line2d_14">
      <path clip-path="url(#p4d20e1a1eb)" d="M 135 107.582775 
L 972 107.582775 
" style="fill:none;stroke:#cccccc;stroke-linecap:round;stroke-width:0.8;"/>
     </g>
     <g id="text_15">
      <!-- 1400 -->
      <g style="fill:#262626;" transform="translate(102.55 111.381994)scale(0.1 -0.1)">
       <use xlink:href="#DejaVuSans-49"/>
       <use x="63.623047" xlink:href="#DejaVuSans-52"/>
       <use x="127.246094" xlink:href="#DejaVuSans-48"/>
       <use x="190.869141" xlink:href="#DejaVuSans-48"/>
      </g>
     </g>
    </g>
    <g id="ytick_9">
     <g id="line2d_15">
      <path clip-path="url(#p4d20e1a1eb)" d="M 135 62.422652 
L 972 62.422652 
" style="fill:none;stroke:#cccccc;stroke-linecap:round;stroke-width:0.8;"/>
     </g>
     <g id="text_16">
      <!-- 1600 -->
      <g style="fill:#262626;" transform="translate(102.55 66.221871)scale(0.1 -0.1)">
       <use xlink:href="#DejaVuSans-49"/>
       <use x="63.623047" xlink:href="#DejaVuSans-54"/>
       <use x="127.246094" xlink:href="#DejaVuSans-48"/>
       <use x="190.869141" xlink:href="#DejaVuSans-48"/>
      </g>
     </g>
    </g>
    <g id="text_17">
     <!-- Gain cumulé -->
     <defs>
      <path d="M 59.515625 10.40625 
L 59.515625 29.984375 
L 43.40625 29.984375 
L 43.40625 38.09375 
L 69.28125 38.09375 
L 69.28125 6.78125 
Q 63.578125 2.734375 56.6875 0.65625 
Q 49.8125 -1.421875 42 -1.421875 
Q 24.90625 -1.421875 15.25 8.5625 
Q 5.609375 18.5625 5.609375 36.375 
Q 5.609375 54.25 15.25 64.234375 
Q 24.90625 74.21875 42 74.21875 
Q 49.125 74.21875 55.546875 72.453125 
Q 61.96875 70.703125 67.390625 67.28125 
L 67.390625 56.78125 
Q 61.921875 61.421875 55.765625 63.765625 
Q 49.609375 66.109375 42.828125 66.109375 
Q 29.4375 66.109375 22.71875 58.640625 
Q 16.015625 51.171875 16.015625 36.375 
Q 16.015625 21.625 22.71875 14.15625 
Q 29.4375 6.6875 42.828125 6.6875 
Q 48.046875 6.6875 52.140625 7.59375 
Q 56.25 8.5 59.515625 10.40625 
z
" id="DejaVuSans-71"/>
      <path id="DejaVuSans-32"/>
      <path d="M 48.78125 52.59375 
L 48.78125 44.1875 
Q 44.96875 46.296875 41.140625 47.34375 
Q 37.3125 48.390625 33.40625 48.390625 
Q 24.65625 48.390625 19.8125 42.84375 
Q 14.984375 37.3125 14.984375 27.296875 
Q 14.984375 17.28125 19.8125 11.734375 
Q 24.65625 6.203125 33.40625 6.203125 
Q 37.3125 6.203125 41.140625 7.25 
Q 44.96875 8.296875 48.78125 10.40625 
L 48.78125 2.09375 
Q 45.015625 0.34375 40.984375 -0.53125 
Q 36.96875 -1.421875 32.421875 -1.421875 
Q 20.0625 -1.421875 12.78125 6.34375 
Q 5.515625 14.109375 5.515625 27.296875 
Q 5.515625 40.671875 12.859375 48.328125 
Q 20.21875 56 33.015625 56 
Q 37.15625 56 41.109375 55.140625 
Q 45.0625 54.296875 48.78125 52.59375 
z
" id="DejaVuSans-99"/>
      <path d="M 8.5 21.578125 
L 8.5 54.6875 
L 17.484375 54.6875 
L 17.484375 21.921875 
Q 17.484375 14.15625 20.5 10.265625 
Q 23.53125 6.390625 29.59375 6.390625 
Q 36.859375 6.390625 41.078125 11.03125 
Q 45.3125 15.671875 45.3125 23.6875 
L 45.3125 54.6875 
L 54.296875 54.6875 
L 54.296875 0 
L 45.3125 0 
L 45.3125 8.40625 
Q 42.046875 3.421875 37.71875 1 
Q 33.40625 -1.421875 27.6875 -1.421875 
Q 18.265625 -1.421875 13.375 4.4375 
Q 8.5 10.296875 8.5 21.578125 
z
M 31.109375 56 
z
" id="DejaVuSans-117"/>
      <path d="M 52 44.1875 
Q 55.375 50.25 60.0625 53.125 
Q 64.75 56 71.09375 56 
Q 79.640625 56 84.28125 50.015625 
Q 88.921875 44.046875 88.921875 33.015625 
L 88.921875 0 
L 79.890625 0 
L 79.890625 32.71875 
Q 79.890625 40.578125 77.09375 44.375 
Q 74.3125 48.1875 68.609375 48.1875 
Q 61.625 48.1875 57.5625 43.546875 
Q 53.515625 38.921875 53.515625 30.90625 
L 53.515625 0 
L 44.484375 0 
L 44.484375 32.71875 
Q 44.484375 40.625 41.703125 44.40625 
Q 38.921875 48.1875 33.109375 48.1875 
Q 26.21875 48.1875 22.15625 43.53125 
Q 18.109375 38.875 18.109375 30.90625 
L 18.109375 0 
L 9.078125 0 
L 9.078125 54.6875 
L 18.109375 54.6875 
L 18.109375 46.1875 
Q 21.1875 51.21875 25.484375 53.609375 
Q 29.78125 56 35.6875 56 
Q 41.65625 56 45.828125 52.96875 
Q 50 49.953125 52 44.1875 
z
" id="DejaVuSans-109"/>
      <path d="M 9.421875 75.984375 
L 18.40625 75.984375 
L 18.40625 0 
L 9.421875 0 
z
" id="DejaVuSans-108"/>
     </defs>
     <g style="fill:#262626;" transform="translate(95.638437 294.850937)rotate(-90)scale(0.14 -0.14)">
      <use xlink:href="#DejaVuSans-71"/>
      <use x="77.490234" xlink:href="#DejaVuSans-97"/>
      <use x="138.769531" xlink:href="#DejaVuSans-105"/>
      <use x="166.552734" xlink:href="#DejaVuSans-110"/>
      <use x="229.931641" xlink:href="#DejaVuSans-32"/>
      <use x="261.71875" xlink:href="#DejaVuSans-99"/>
      <use x="316.699219" xlink:href="#DejaVuSans-117"/>
      <use x="380.078125" xlink:href="#DejaVuSans-109"/>
      <use x="477.490234" xlink:href="#DejaVuSans-117"/>
      <use x="540.869141" xlink:href="#DejaVuSans-108"/>
      <use x="568.652344" xlink:href="#DejaVuSans-233"/>
     </g>
    </g>
   </g>
   <g id="line2d_16">
    <path clip-path="url(#p4d20e1a1eb)" d="M 173.045455 423.703636 
L 174.11094 423.578143 
L 174.872002 423.47493 
L 175.176426 423.384211 
L 179.133945 423.015014 
L 179.438369 422.935523 
L 182.939251 422.621631 
L 183.395888 422.495088 
L 187.962256 422.128182 
L 188.418893 422.041909 
L 191.006501 421.534822 
L 192.528624 421.436181 
L 193.137473 421.338887 
L 193.898534 421.277214 
L 195.877294 421.093703 
L 196.181718 421.026985 
L 196.790567 420.954132 
L 197.247204 420.90804 
L 198.769327 420.84177 
L 199.225963 420.770809 
L 199.987025 420.714653 
L 200.443661 420.606628 
L 202.270209 420.437748 
L 205.162242 420.020711 
L 207.74985 419.92683 
L 208.815336 419.775304 
L 209.576397 419.666258 
L 210.185246 419.605552 
L 211.859581 419.514885 
L 212.925067 419.339811 
L 214.903826 419.274621 
L 215.360463 419.210051 
L 217.339222 418.99621 
L 217.643647 418.928586 
L 220.383468 418.825087 
L 220.687892 418.7568 
L 221.144529 418.671324 
L 222.057802 418.417294 
L 223.275501 418.330888 
L 224.188774 418.267604 
L 226.62417 418.192284 
L 227.233019 417.956636 
L 227.994081 417.867059 
L 228.450717 417.810102 
L 229.820628 417.725321 
L 230.886114 417.546416 
L 233.017085 417.398435 
L 233.473722 417.273985 
L 234.234783 417.181517 
L 234.539208 417.11518 
L 235.300269 417.011224 
L 235.909118 416.942257 
L 237.583453 416.834997 
L 240.171061 416.628971 
L 240.627698 416.535848 
L 241.38876 416.506857 
L 243.671943 416.421884 
L 244.280793 416.308492 
L 245.650703 416.211146 
L 247.781675 415.870261 
L 248.238311 415.79501 
L 248.84716 415.722574 
L 250.521495 415.626995 
L 251.434769 415.447081 
L 253.413528 415.381924 
L 253.870165 415.329844 
L 254.783439 415.303466 
L 255.087863 415.20232 
L 256.609986 415.092653 
L 258.284321 414.782053 
L 258.588745 414.759203 
L 258.89317 414.624476 
L 268.634754 413.87183 
L 270.004665 413.624323 
L 270.765726 413.537823 
L 271.374575 413.372807 
L 272.287848 413.268816 
L 272.896698 413.177773 
L 273.657759 413.07855 
L 278.376339 412.56555 
L 278.832976 412.464245 
L 279.1374 412.368349 
L 279.746249 412.324546 
L 281.11616 412.106333 
L 281.572796 412.033505 
L 283.703768 411.841405 
L 284.312617 411.705385 
L 285.378103 411.661391 
L 287.661287 411.437927 
L 288.117924 411.39363 
L 289.031197 411.298219 
L 292.836504 410.840601 
L 293.901989 410.770112 
L 294.358626 410.653639 
L 295.880749 410.554477 
L 296.337386 410.43931 
L 298.772782 410.308826 
L 305.165697 409.642071 
L 305.622334 409.534064 
L 310.188701 409.16414 
L 311.254187 409.029813 
L 311.710824 408.980979 
L 313.080734 408.873098 
L 313.385159 408.807738 
L 314.14622 408.724837 
L 314.450645 408.642434 
L 315.211706 408.53233 
L 317.49489 408.322068 
L 317.799314 408.215268 
L 318.103739 408.141605 
L 319.321437 407.943903 
L 319.778074 407.908246 
L 320.082498 407.796074 
L 322.365682 407.698789 
L 322.822319 407.581969 
L 325.866564 407.487214 
L 327.084262 407.422001 
L 327.845324 407.325005 
L 328.149748 407.236593 
L 329.671871 407.004364 
L 331.498418 406.926216 
L 331.955055 406.868141 
L 333.933814 406.72831 
L 334.086026 406.72831 
L 334.390451 406.613181 
L 336.216998 406.513269 
L 336.673635 406.444452 
L 337.434696 406.375257 
L 337.891333 406.240016 
L 338.195757 406.143586 
L 340.174517 405.992415 
L 340.935578 405.923361 
L 341.392215 405.858097 
L 341.848852 405.812703 
L 342.305488 405.680403 
L 343.675399 405.596524 
L 344.43646 405.524292 
L 345.80637 405.220254 
L 346.567432 405.142814 
L 347.328493 405.041601 
L 347.937342 404.938197 
L 355.700167 404.021387 
L 356.156804 403.967024 
L 356.461229 403.901808 
L 356.917865 403.855742 
L 357.831139 403.553329 
L 358.5922 403.482095 
L 358.896625 403.376319 
L 360.114323 403.318832 
L 360.57096 403.156288 
L 361.788658 403.096154 
L 362.093082 403.024124 
L 363.31078 402.945665 
L 363.615205 402.835579 
L 364.376266 402.746693 
L 365.137327 402.637471 
L 366.963875 402.549498 
L 368.333785 402.434081 
L 369.551483 402.312508 
L 370.00812 402.22911 
L 371.073606 402.110785 
L 372.900153 402.011258 
L 373.509002 401.95535 
L 374.7267 401.887889 
L 375.031124 401.807437 
L 375.639973 401.736751 
L 376.248822 401.616469 
L 378.227582 401.498132 
L 378.684219 401.385616 
L 379.44528 401.310203 
L 379.749704 401.233406 
L 388.730228 400.331798 
L 389.034652 400.257241 
L 389.947926 400.207642 
L 390.8612 399.888027 
L 391.622261 399.836963 
L 393.60102 399.752647 
L 394.514294 399.572238 
L 396.94969 399.466833 
L 397.406327 399.365659 
L 397.710751 399.282835 
L 399.232874 399.207091 
L 399.689511 399.162277 
L 401.059421 399.018983 
L 401.972695 398.888221 
L 402.581544 398.768724 
L 403.03818 398.71896 
L 412.627553 397.520246 
L 413.693039 397.439482 
L 415.062949 397.234734 
L 417.498345 396.982767 
L 417.954982 396.867686 
L 419.324892 396.757798 
L 419.629317 396.650344 
L 421.455864 396.555132 
L 423.586836 396.246443 
L 427.848779 395.831272 
L 428.305416 395.636581 
L 428.914265 395.538896 
L 429.827538 395.379657 
L 432.719571 395.290519 
L 433.32842 395.217782 
L 435.154967 395.030336 
L 435.611604 394.983377 
L 435.916029 394.902617 
L 436.829302 394.822891 
L 437.438151 394.740644 
L 438.503637 394.636234 
L 439.112486 394.584592 
L 440.634609 394.52143 
L 441.243458 394.370114 
L 442.613368 394.178347 
L 443.983278 394.019974 
L 444.592128 393.857137 
L 448.245222 393.802129 
L 448.854071 393.575301 
L 450.071769 393.536998 
L 450.376193 393.458492 
L 452.507165 393.37747 
L 453.268226 393.310416 
L 454.790349 393.212514 
L 455.246986 393.172416 
L 456.464684 393.082578 
L 456.769108 392.998661 
L 458.595655 392.891353 
L 462.705387 392.574726 
L 463.314236 392.490482 
L 463.61866 392.395745 
L 464.836358 392.295707 
L 467.423967 392.068401 
L 468.946089 391.966413 
L 476.708915 390.912307 
L 477.622188 390.804636 
L 477.926613 390.728775 
L 478.839886 390.641362 
L 479.905372 390.401049 
L 483.101829 390.015424 
L 485.080589 389.904996 
L 485.385013 389.819225 
L 485.84165 389.690023 
L 487.059348 389.585481 
L 487.363773 389.510014 
L 488.885895 389.428779 
L 490.56023 389.0852 
L 491.473504 389.019784 
L 491.930141 388.954338 
L 493.9089 388.844639 
L 494.365537 388.662323 
L 494.822174 388.608389 
L 500.301815 388.175105 
L 500.910664 388.092675 
L 503.498272 387.737421 
L 505.477032 387.461276 
L 507.455791 387.396956 
L 507.912428 387.307873 
L 509.282338 387.198864 
L 510.0434 387.000735 
L 510.500036 386.904056 
L 510.804461 386.812728 
L 511.41331 386.70648 
L 512.326583 386.484002 
L 512.631008 386.379666 
L 513.087645 386.295784 
L 516.284102 385.911597 
L 518.262862 385.822283 
L 518.567286 385.760506 
L 520.241621 385.708679 
L 520.85047 385.512917 
L 521.611531 385.42763 
L 522.068168 385.3822 
L 525.416838 385.031571 
L 525.873475 384.982595 
L 526.634536 384.955464 
L 527.395597 384.831258 
L 527.852234 384.770585 
L 529.830993 384.495632 
L 533.484088 384.259294 
L 533.788512 384.19534 
L 534.853998 384.10054 
L 544.900007 382.849003 
L 545.965493 382.687874 
L 548.096465 382.585872 
L 552.967257 382.079289 
L 555.707078 381.990457 
L 556.011502 381.923378 
L 556.315927 381.843354 
L 556.620351 381.74749 
L 558.599111 381.557599 
L 558.903535 381.462345 
L 562.099993 381.144912 
L 563.165479 381.079406 
L 563.622115 380.982487 
L 565.753087 380.674548 
L 566.970785 380.519184 
L 567.27521 380.427373 
L 568.797332 380.334574 
L 569.101757 380.270435 
L 569.710606 380.190816 
L 570.01503 380.118208 
L 572.450426 379.817531 
L 572.754851 379.694006 
L 574.276974 379.593854 
L 576.103521 379.305689 
L 577.169007 379.194836 
L 578.234492 379.07804 
L 578.691129 378.977648 
L 580.213252 378.877344 
L 581.126525 378.716591 
L 588.584926 377.821072 
L 591.476959 377.334871 
L 592.085808 377.204421 
L 593.303506 377.11657 
L 593.607931 377.035003 
L 594.368992 376.944849 
L 594.825629 376.869448 
L 596.499964 376.818834 
L 596.9566 376.712168 
L 597.717662 376.639422 
L 598.022086 376.55065 
L 599.544209 376.455589 
L 600.30527 376.429496 
L 602.740666 376.324163 
L 603.958364 376.247521 
L 606.241548 376.004157 
L 606.850397 375.922969 
L 608.524732 375.876804 
L 608.981369 375.716661 
L 609.74243 375.622495 
L 610.351279 375.434562 
L 613.395525 375.344289 
L 614.308798 375.227761 
L 615.526496 375.139275 
L 615.983133 375.085373 
L 616.744194 374.985322 
L 617.200831 374.919069 
L 619.331803 374.839622 
L 619.636227 374.763871 
L 620.397289 374.665328 
L 621.614987 374.634808 
L 623.137109 374.555794 
L 623.745958 374.413683 
L 625.87693 374.323266 
L 626.333567 374.215346 
L 627.551265 374.119018 
L 627.855689 374.04195 
L 628.616751 373.944014 
L 631.204359 373.458959 
L 631.96542 373.372616 
L 632.878694 373.088806 
L 633.639755 372.978307 
L 634.248604 372.898281 
L 635.009666 372.885766 
L 635.31409 372.783919 
L 635.922939 372.702144 
L 636.379576 372.629706 
L 638.053911 372.52645 
L 638.358335 372.40802 
L 640.793731 372.056576 
L 641.554793 372.010979 
L 642.468066 371.918471 
L 643.38134 371.709488 
L 643.685764 371.639542 
L 645.512312 371.540774 
L 646.425585 371.396482 
L 649.165406 371.290928 
L 649.774255 371.176821 
L 651.753014 371.106551 
L 652.057439 371.033179 
L 653.275137 370.974332 
L 653.731774 370.855718 
L 654.645047 370.783453 
L 655.253896 370.700043 
L 656.776019 370.421534 
L 658.145929 370.347338 
L 658.754778 370.142301 
L 659.51584 370.020568 
L 659.972476 369.976619 
L 665.60433 369.677246 
L 666.213179 369.505614 
L 668.191938 369.397368 
L 670.931759 369.089051 
L 671.236184 368.966898 
L 671.845033 368.872874 
L 672.453882 368.831969 
L 674.584853 368.740958 
L 675.193702 368.701872 
L 686.000773 367.217126 
L 687.522895 367.141164 
L 688.283957 367.007389 
L 689.045018 366.973246 
L 689.501655 366.890701 
L 689.958292 366.757584 
L 693.306961 366.461379 
L 694.829084 366.35929 
L 697.568905 366.067915 
L 698.177754 366.01367 
L 700.308725 365.860829 
L 705.940579 365.459278 
L 706.245004 365.367234 
L 707.158277 365.329994 
L 707.462702 365.209498 
L 708.071551 365.112834 
L 708.528187 364.980333 
L 708.832612 364.91304 
L 709.593673 364.80473 
L 710.354735 364.478406 
L 711.42022 364.39595 
L 711.724645 364.335501 
L 713.246768 364.264013 
L 713.703404 364.170682 
L 715.225527 364.060376 
L 717.204286 363.856855 
L 717.813135 363.80094 
L 718.269772 363.704936 
L 718.726409 363.629586 
L 719.791895 363.528914 
L 720.096319 363.455242 
L 721.009593 363.353661 
L 721.46623 363.271381 
L 721.922866 363.192413 
L 722.227291 363.095913 
L 722.683928 363.038331 
L 723.444989 362.880811 
L 724.510475 362.833342 
L 725.271536 362.537786 
L 726.489234 362.502518 
L 726.793659 362.418476 
L 727.706932 362.266907 
L 728.620206 361.998853 
L 728.92463 361.958452 
L 729.229055 361.881388 
L 730.294541 361.821635 
L 730.598965 361.755112 
L 732.425512 361.683053 
L 732.729937 361.586281 
L 734.708696 361.219013 
L 735.469758 361.109192 
L 737.752941 360.825268 
L 738.666215 360.73777 
L 739.731701 360.611437 
L 741.253823 360.533409 
L 741.862673 360.365677 
L 743.68922 360.263984 
L 744.298069 360.183206 
L 746.124616 360.100636 
L 746.42904 360.025073 
L 748.4078 359.919673 
L 757.083899 358.744545 
L 758.149384 358.657918 
L 758.606021 358.529314 
L 759.062658 358.429916 
L 760.432568 358.107946 
L 761.498054 357.990311 
L 761.954691 357.886834 
L 764.694512 357.794152 
L 765.607785 357.690113 
L 766.064422 357.637932 
L 766.368846 357.523591 
L 766.977696 357.4496 
L 767.28212 357.374055 
L 768.804243 357.272189 
L 769.108667 357.201656 
L 769.717516 357.164512 
L 770.021941 357.054295 
L 771.391851 356.97344 
L 772.457337 356.892495 
L 772.913974 356.721861 
L 773.522823 356.646842 
L 773.827247 356.564212 
L 776.110431 356.472882 
L 776.71928 356.346303 
L 780.220162 355.898151 
L 781.590073 355.747885 
L 781.894497 355.660947 
L 783.112195 355.586616 
L 783.568832 355.427577 
L 785.243167 355.33336 
L 786.460865 355.144276 
L 786.917502 355.122246 
L 787.221926 355.027529 
L 788.287412 354.88521 
L 789.809535 354.775196 
L 791.940506 354.633008 
L 792.397143 354.520804 
L 794.22369 354.418855 
L 794.680327 354.364871 
L 795.289176 354.274722 
L 796.354662 354.133495 
L 796.963511 354.074838 
L 797.57236 353.949605 
L 803.66085 353.240995 
L 805.182973 353.137171 
L 805.63961 353.088521 
L 806.705096 352.987763 
L 808.075006 352.846493 
L 808.988279 352.754149 
L 809.292704 352.683995 
L 812.336949 352.581027 
L 812.945798 352.405184 
L 814.315709 352.2853 
L 814.620133 352.215098 
L 815.381194 352.056491 
L 817.968803 351.979342 
L 818.577652 351.867195 
L 820.556411 351.757278 
L 821.013048 351.62776 
L 821.317473 351.558121 
L 821.926322 351.493774 
L 822.382958 351.436719 
L 822.839595 351.284892 
L 823.296232 351.163267 
L 824.209506 351.053449 
L 824.818355 350.94917 
L 825.274991 350.882722 
L 826.797114 350.714412 
L 827.253751 350.548348 
L 830.60242 350.396827 
L 831.363482 350.321358 
L 832.58118 350.098999 
L 834.103302 349.991154 
L 834.407727 349.90776 
L 835.321001 349.842084 
L 835.777637 349.789537 
L 836.234274 349.642193 
L 836.843123 349.4881 
L 837.29976 349.396625 
L 837.908609 349.20769 
L 839.278519 348.954481 
L 840.496217 348.844782 
L 840.800642 348.772904 
L 841.257279 348.724108 
L 842.170552 348.655421 
L 842.627189 348.610705 
L 843.540463 348.50142 
L 843.997099 348.44512 
L 844.910373 348.337682 
L 846.128071 348.223431 
L 846.432496 348.15561 
L 847.650194 348.049707 
L 849.781165 347.820433 
L 850.08559 347.671042 
L 851.607712 347.570854 
L 851.912137 347.50819 
L 853.738684 347.449176 
L 854.347533 347.298988 
L 855.717443 347.195927 
L 856.478505 347.100572 
L 862.719207 346.452944 
L 863.023632 346.377642 
L 864.850179 346.331502 
L 865.154604 346.227494 
L 865.763453 346.196044 
L 866.220089 346.113 
L 866.524514 346.034335 
L 867.742212 345.92485 
L 868.655486 345.848061 
L 869.568759 345.746602 
L 870.177608 345.671645 
L 870.482033 345.612644 
L 870.786457 345.504169 
L 871.243094 345.443481 
L 872.30858 345.357939 
L 872.765217 345.30793 
L 874.287339 345.200384 
L 874.743976 345.120356 
L 875.200613 345.023781 
L 876.418311 344.923995 
L 884.942198 344.192671 
L 885.398834 344.039557 
L 887.377594 343.946117 
L 887.986443 343.911268 
L 889.356353 343.804554 
L 892.705023 343.324998 
L 893.16166 343.299131 
L 893.466084 343.16714 
L 894.53157 343.126247 
L 895.444844 343.065021 
L 895.90148 342.959125 
L 896.814754 342.869002 
L 897.575815 342.680473 
L 898.336876 342.612722 
L 898.945726 342.510939 
L 899.706787 342.437626 
L 900.467848 342.238834 
L 901.837758 342.05016 
L 902.446608 341.935743 
L 903.96873 341.86228 
L 904.425367 341.805453 
L 906.251914 341.710591 
L 907.469612 341.579485 
L 908.382886 341.485813 
L 909.448371 341.336551 
L 910.818282 341.277091 
L 911.274919 341.223979 
L 913.101466 341.1853 
L 913.40589 341.100544 
L 915.841286 340.997096 
L 919.342168 340.435594 
L 919.951017 340.379856 
L 920.712079 340.206596 
L 921.320928 340.139258 
L 922.386414 340.033931 
L 922.690838 339.967707 
L 924.669598 339.833798 
L 925.278447 339.73024 
L 926.648357 339.636367 
L 927.104994 339.534065 
L 928.322692 339.423443 
L 929.235965 339.343428 
L 929.692602 339.176775 
L 930.605876 339.077634 
L 931.062513 339.028762 
L 933.954545 338.795078 
L 933.954545 338.795078 
" style="fill:none;stroke:#1f77b4;stroke-linecap:round;stroke-width:1.5;"/>
   </g>
   <g id="line2d_17">
    <path clip-path="url(#p4d20e1a1eb)" d="M 173.045455 423.680514 
L 173.806516 423.563436 
L 174.263153 423.379337 
L 175.785275 422.833157 
L 176.241912 422.598996 
L 180.047219 421.173685 
L 180.80828 420.839671 
L 195.572869 415.105351 
L 196.029506 414.949704 
L 196.486143 414.753975 
L 200.595874 413.001344 
L 201.052511 412.795299 
L 201.965784 412.416032 
L 203.03127 411.95413 
L 203.792331 411.596377 
L 204.40118 411.412437 
L 204.857817 411.247291 
L 206.227727 410.760306 
L 207.293213 410.380552 
L 207.902062 410.099703 
L 211.555156 408.530209 
L 212.772855 408.093128 
L 214.142765 407.417059 
L 214.751614 407.205495 
L 216.578161 406.502424 
L 218.55692 405.681348 
L 219.16577 405.34299 
L 220.53568 404.776878 
L 221.90559 404.188734 
L 222.971076 403.859607 
L 224.188774 403.314483 
L 224.949835 403.011412 
L 226.62417 402.35019 
L 227.841868 401.75002 
L 228.60293 401.408522 
L 229.668416 400.939884 
L 230.581689 400.549581 
L 231.34275 400.205881 
L 232.408236 399.817417 
L 232.864873 399.60652 
L 234.69142 398.973508 
L 235.148057 398.835331 
L 237.735665 397.870479 
L 241.693184 396.318399 
L 242.302033 396.115957 
L 243.671943 395.536723 
L 244.12858 395.43259 
L 244.737429 395.136064 
L 245.194066 395.04126 
L 246.10734 394.609341 
L 248.999373 393.515141 
L 250.217071 392.907486 
L 250.521495 392.797697 
L 250.978132 392.564044 
L 253.56574 391.693899 
L 254.631226 391.177284 
L 255.848924 390.734081 
L 256.762198 390.313651 
L 257.523259 389.942321 
L 264.829448 386.900736 
L 265.286084 386.752017 
L 266.047146 386.397857 
L 269.243603 385.242216 
L 269.852452 384.938846 
L 270.461301 384.680348 
L 272.896698 383.827118 
L 273.505547 383.625999 
L 275.636518 382.908145 
L 277.76749 381.967468 
L 279.441825 381.322032 
L 282.029433 380.337826 
L 282.48607 380.109866 
L 289.640046 377.305863 
L 290.096683 377.176894 
L 290.705532 376.931529 
L 291.314381 376.766667 
L 293.29314 376.072225 
L 306.231183 371.448591 
L 306.687819 371.271903 
L 308.05773 370.750784 
L 309.579852 370.037106 
L 310.036489 369.832107 
L 312.471885 368.898714 
L 313.080734 368.591339 
L 314.602857 368.040876 
L 315.363918 367.796324 
L 317.647102 366.866049 
L 319.017012 366.323664 
L 319.778074 366.086405 
L 320.539135 365.654948 
L 321.909045 365.039478 
L 323.126744 364.500279 
L 324.192229 364.159005 
L 325.866564 363.430646 
L 328.149748 362.505741 
L 328.758597 362.2642 
L 329.824083 361.850186 
L 330.432932 361.629646 
L 330.737357 361.558936 
L 331.346206 361.271132 
L 332.868328 360.695263 
L 334.694875 359.833471 
L 335.303724 359.65745 
L 338.34797 358.488837 
L 339.109031 358.051006 
L 342.609913 356.609535 
L 345.501946 355.579487 
L 346.110795 355.235901 
L 346.719644 355.040781 
L 347.632917 354.678872 
L 348.698403 354.351466 
L 349.611677 353.919293 
L 350.981587 353.390545 
L 352.808134 352.848802 
L 353.264771 352.672144 
L 353.87362 352.46303 
L 354.939106 352.011517 
L 356.004592 351.582682 
L 356.765653 351.233296 
L 359.048837 350.306107 
L 360.418747 349.682301 
L 362.245295 348.904073 
L 364.985115 347.784775 
L 365.441752 347.614525 
L 366.050601 347.30067 
L 367.268299 346.811958 
L 368.181573 346.359314 
L 371.073606 345.299722 
L 371.682455 345.119066 
L 372.900153 344.674942 
L 373.204577 344.573576 
L 374.117851 344.155982 
L 382.185101 341.116133 
L 385.685983 339.549208 
L 386.599256 339.254771 
L 388.425803 338.494897 
L 389.034652 338.181294 
L 389.491289 338.062984 
L 389.947926 337.906778 
L 392.687747 336.686873 
L 394.514294 336.134469 
L 395.427567 335.779474 
L 408.365609 330.587736 
L 409.278883 330.213424 
L 409.887732 329.940768 
L 410.344369 329.783233 
L 411.10543 329.485805 
L 412.323128 328.908595 
L 412.779765 328.733114 
L 413.236402 328.504114 
L 415.215161 327.799953 
L 415.671798 327.622839 
L 415.976223 327.520128 
L 419.324892 326.144509 
L 420.238166 325.639084 
L 421.760288 325.124351 
L 424.043472 324.297775 
L 425.108958 323.806088 
L 426.478869 323.281452 
L 429.523114 321.866579 
L 429.97975 321.695344 
L 431.197449 321.160583 
L 434.850543 319.693032 
L 435.459392 319.443043 
L 436.372665 319.096061 
L 438.351425 318.326209 
L 438.808062 318.12463 
L 440.330184 317.487951 
L 441.091246 317.261332 
L 441.852307 316.988007 
L 445.048764 315.855839 
L 445.962038 315.508466 
L 447.636373 314.859846 
L 448.09301 314.623237 
L 448.397434 314.52701 
L 449.158495 314.239418 
L 450.680618 313.53109 
L 451.746104 313.070562 
L 456.008047 311.403562 
L 462.705387 308.686812 
L 464.379721 308.056493 
L 464.98857 307.74141 
L 465.749632 307.392312 
L 466.815118 306.864435 
L 468.185028 306.344146 
L 473.208033 304.267122 
L 474.273518 303.87405 
L 476.100065 303.086737 
L 477.7744 302.378546 
L 478.992098 302.023134 
L 480.057584 301.536356 
L 480.362009 301.426947 
L 483.406254 300.238387 
L 484.928377 299.781374 
L 486.146075 299.275594 
L 489.646957 298.010258 
L 490.712442 297.64816 
L 491.016867 297.539593 
L 491.625716 297.261996 
L 494.213324 296.125417 
L 494.669961 295.908057 
L 495.735447 295.544616 
L 496.192084 295.296862 
L 497.409782 294.929195 
L 505.477032 291.670806 
L 506.69473 291.112822 
L 509.434551 290.261168 
L 510.804461 289.687146 
L 511.565522 289.40684 
L 513.392069 288.651241 
L 519.937197 286.00444 
L 520.698258 285.679356 
L 521.002682 285.61761 
L 521.915956 285.239773 
L 524.351352 284.339104 
L 525.112413 284.045901 
L 525.873475 283.797305 
L 527.700022 283.021081 
L 533.027451 281.003615 
L 533.331875 280.886418 
L 536.98497 279.442483 
L 537.593819 279.265091 
L 539.268154 278.486362 
L 540.485852 277.891947 
L 541.094701 277.684662 
L 551.292922 273.553305 
L 551.901771 273.344454 
L 553.880531 272.545251 
L 555.250441 272.075083 
L 556.011502 271.730911 
L 560.121233 270.032473 
L 560.57787 269.861832 
L 572.450426 264.813939 
L 572.907063 264.571736 
L 573.820337 264.309211 
L 575.646884 263.624909 
L 593.455718 256.346148 
L 594.21678 256.049601 
L 595.738902 255.539064 
L 597.261025 255.028223 
L 598.326511 254.637438 
L 598.630935 254.57903 
L 599.848633 254.094506 
L 600.761907 253.74455 
L 603.349515 252.552179 
L 603.958364 252.337771 
L 604.262789 252.221047 
L 604.871638 251.941272 
L 605.328275 251.769369 
L 605.937124 251.499685 
L 607.00261 251.171723 
L 616.135345 247.182541 
L 616.896407 246.925101 
L 617.80968 246.565358 
L 618.418529 246.41585 
L 619.027378 246.162153 
L 625.572505 243.556272 
L 626.029142 243.355286 
L 626.790203 243.105817 
L 629.682236 241.780361 
L 630.59551 241.518818 
L 631.508784 241.073565 
L 632.117633 240.740647 
L 634.096392 239.99447 
L 634.553029 239.794582 
L 635.618515 239.393794 
L 635.922939 239.221099 
L 636.531788 239.090172 
L 637.749486 238.673127 
L 638.358335 238.467289 
L 639.119397 238.19921 
L 640.641519 237.502321 
L 641.098156 237.275132 
L 642.315854 236.778438 
L 642.924703 236.534892 
L 643.533552 236.215991 
L 645.816736 235.366765 
L 647.491071 234.637534 
L 648.708769 234.263167 
L 650.383104 233.447129 
L 650.839741 233.346008 
L 651.44859 233.100327 
L 651.905226 232.940415 
L 657.689292 230.630281 
L 658.145929 230.561978 
L 659.211415 230.179003 
L 660.581325 229.684878 
L 664.843269 227.964868 
L 666.060967 227.570247 
L 667.430877 226.955866 
L 668.039726 226.759706 
L 671.540608 225.465991 
L 672.606094 224.999804 
L 675.345915 224.00667 
L 675.802551 223.806261 
L 678.694584 222.462403 
L 679.151221 222.251384 
L 679.912282 222.043156 
L 680.368919 221.90729 
L 683.10874 220.761888 
L 684.174226 220.41483 
L 684.326438 220.407852 
L 684.783075 220.174253 
L 685.544136 219.901228 
L 686.000773 219.651375 
L 686.609622 219.441212 
L 686.914046 219.299468 
L 687.675108 219.094365 
L 688.436169 218.826067 
L 705.940579 212.128112 
L 706.397216 211.942809 
L 706.853853 211.791476 
L 707.614914 211.41714 
L 708.528187 211.015038 
L 709.289249 210.777595 
L 709.593673 210.667463 
L 710.506947 210.220184 
L 713.246768 209.267721 
L 715.834376 207.96999 
L 716.1388 207.882997 
L 716.595437 207.649532 
L 717.660923 207.30707 
L 719.48747 206.459827 
L 719.791895 206.380705 
L 721.770654 205.610739 
L 722.227291 205.511195 
L 724.510475 204.609069 
L 725.271536 204.269519 
L 726.18481 203.953603 
L 727.098083 203.625202 
L 728.92463 202.964317 
L 730.142328 202.466319 
L 732.425512 201.538852 
L 733.034361 201.275934 
L 733.947635 200.935766 
L 734.708696 200.611732 
L 735.469758 200.321149 
L 736.078607 200.043914 
L 736.839668 199.744812 
L 737.296305 199.564299 
L 738.057366 199.336114 
L 738.818427 198.946733 
L 744.602493 196.769611 
L 746.42904 196.007953 
L 755.257351 192.567653 
L 756.47505 192.084124 
L 757.692748 191.58462 
L 760.128144 190.635313 
L 760.584781 190.429231 
L 761.802479 189.918391 
L 762.411328 189.720238 
L 763.020177 189.443446 
L 766.673271 187.840225 
L 771.391851 185.96101 
L 772.0007 185.709868 
L 776.871492 183.793809 
L 777.480342 183.578691 
L 779.763525 182.776694 
L 782.046709 181.923963 
L 782.351134 181.741086 
L 782.959983 181.481147 
L 784.482106 180.872295 
L 785.852016 180.255729 
L 786.460865 180.088439 
L 788.287412 179.366508 
L 789.352898 178.881661 
L 790.570596 178.347132 
L 791.027233 178.209986 
L 791.48387 178.034892 
L 794.832539 176.683273 
L 795.289176 176.50486 
L 795.898025 176.276817 
L 797.57236 175.632923 
L 805.63961 172.242108 
L 806.248459 172.034323 
L 809.444916 170.656649 
L 810.510402 170.315593 
L 812.184737 169.643413 
L 812.641374 169.434667 
L 815.837831 168.00235 
L 816.142256 167.927823 
L 816.598893 167.681607 
L 822.687383 165.355525 
L 823.752869 164.982778 
L 825.122779 164.411659 
L 826.492689 163.854187 
L 828.775873 162.780901 
L 831.820119 161.515092 
L 832.58118 161.171676 
L 834.103302 160.539392 
L 836.082062 159.671543 
L 837.451972 159.205611 
L 840.64843 157.84293 
L 842.779401 156.933887 
L 843.083826 156.818649 
L 843.997099 156.425039 
L 850.390014 153.857897 
L 850.694439 153.716078 
L 853.738684 152.403935 
L 854.347533 152.229981 
L 854.651958 152.165726 
L 855.260807 151.920612 
L 855.869656 151.785704 
L 857.848415 151.064122 
L 858.457264 150.801109 
L 860.131599 150.218146 
L 860.740448 149.89255 
L 861.805934 149.573953 
L 863.023632 149.071041 
L 863.328057 148.940396 
L 864.24133 148.581805 
L 866.828939 147.736013 
L 867.285575 147.578481 
L 868.351061 147.234382 
L 868.655486 147.138242 
L 870.025396 146.576807 
L 870.482033 146.478272 
L 871.090882 146.175604 
L 872.004155 145.818423 
L 872.765217 145.461777 
L 874.287339 145.005624 
L 874.591764 144.902332 
L 876.266099 144.191497 
L 877.331584 143.831205 
L 878.244858 143.399689 
L 878.701495 143.263074 
L 879.310344 143.044267 
L 880.37583 142.678943 
L 881.441316 142.323218 
L 885.703259 140.697695 
L 886.159896 140.459094 
L 887.682018 139.95121 
L 888.747504 139.546853 
L 891.1829 138.589556 
L 891.943962 138.2028 
L 893.16166 137.805188 
L 893.466084 137.673197 
L 893.922721 137.462567 
L 894.683782 137.065907 
L 895.90148 136.4702 
L 896.510329 136.208136 
L 897.271391 135.891511 
L 903.512093 133.438276 
L 905.186428 132.733317 
L 906.404126 132.141762 
L 907.774037 131.536827 
L 908.535098 131.34403 
L 909.143947 131.080244 
L 910.66607 130.512402 
L 913.862527 129.116649 
L 915.232437 128.59672 
L 915.841286 128.325583 
L 916.450135 128.128133 
L 917.363409 127.855818 
L 918.12447 127.565068 
L 925.126234 125.013249 
L 925.887296 124.65302 
L 926.343932 124.451976 
L 926.648357 124.341769 
L 927.257206 124.153535 
L 928.322692 123.753193 
L 928.779329 123.525376 
L 930.9103 122.620651 
L 931.975786 122.169979 
L 932.736847 121.746176 
L 933.954545 121.213223 
L 933.954545 121.213223 
" style="fill:none;stroke:#ff7f0e;stroke-linecap:round;stroke-width:1.5;"/>
   </g>
   <g id="line2d_18">
    <path clip-path="url(#p4d20e1a1eb)" d="M 173.045455 423.65064 
L 174.263153 423.182798 
L 175.176426 422.791695 
L 176.698549 422.092457 
L 178.220671 421.493721 
L 180.199431 420.572754 
L 187.810044 417.011227 
L 188.87553 416.551869 
L 189.788803 416.190102 
L 190.397652 415.921819 
L 191.61535 415.398302 
L 194.507383 414.162982 
L 195.268445 413.800887 
L 199.530388 411.983569 
L 200.291449 411.614342 
L 205.771091 409.111833 
L 206.37994 408.844518 
L 207.293213 408.481921 
L 207.902062 408.180989 
L 211.555156 406.469938 
L 213.381704 405.670675 
L 214.447189 405.136974 
L 215.208251 404.771334 
L 216.121524 404.309975 
L 217.034798 403.948706 
L 217.795859 403.620948 
L 218.709133 403.127159 
L 219.317982 402.8148 
L 220.53568 402.236775 
L 222.666652 401.263881 
L 228.60293 398.419824 
L 229.668416 397.935109 
L 230.581689 397.541201 
L 231.494963 397.075394 
L 232.712661 396.563846 
L 233.32151 396.28287 
L 249.760434 388.93746 
L 251.130344 388.194447 
L 253.56574 387.191238 
L 255.392288 386.218526 
L 256.001137 385.950188 
L 257.218835 385.358235 
L 261.480778 383.284875 
L 263.002901 382.647097 
L 263.916174 382.148348 
L 273.04891 378.048713 
L 274.114396 377.653404 
L 275.940943 376.917262 
L 276.549792 376.58712 
L 294.967475 368.262212 
L 298.468357 366.92268 
L 305.622334 363.870834 
L 306.383395 363.485454 
L 307.448881 363.0027 
L 314.602857 359.829236 
L 315.363918 359.517786 
L 323.887805 355.520584 
L 326.627626 354.234516 
L 330.28072 352.520507 
L 332.259479 351.601823 
L 334.694875 350.361415 
L 335.455937 350.051234 
L 336.521422 349.536517 
L 338.34797 348.737031 
L 339.109031 348.281804 
L 345.958583 345.167936 
L 346.567432 344.875701 
L 349.002828 343.757327 
L 349.916101 343.30684 
L 351.894861 342.480532 
L 352.655922 342.144637 
L 354.482469 341.34962 
L 355.547955 340.834124 
L 356.461229 340.427626 
L 361.484233 338.167747 
L 364.680691 336.611283 
L 365.441752 336.264891 
L 366.050601 335.916522 
L 367.268299 335.358826 
L 368.485997 334.733909 
L 372.900153 332.860522 
L 373.509002 332.619338 
L 374.878912 331.962681 
L 377.162096 330.947656 
L 377.923157 330.623599 
L 379.597492 329.934152 
L 380.358554 329.64221 
L 385.685983 327.092693 
L 386.447044 326.826912 
L 391.317836 324.605953 
L 392.23111 324.144035 
L 392.839959 323.9201 
L 394.362082 323.307024 
L 396.797478 322.395337 
L 399.080662 321.191341 
L 400.450572 320.630252 
L 401.059421 320.318475 
L 401.820482 319.993277 
L 402.733756 319.592429 
L 403.799242 319.13306 
L 404.864727 318.616211 
L 406.234638 318.014324 
L 406.995699 317.711612 
L 415.062949 313.994684 
L 416.280647 313.441593 
L 422.216925 310.649565 
L 422.825774 310.427442 
L 424.500109 309.610021 
L 425.717807 309.060594 
L 426.631081 308.640649 
L 427.848779 308.027816 
L 429.370901 307.260086 
L 432.871783 305.660282 
L 433.480632 305.386532 
L 433.937269 305.168626 
L 442.613368 301.213884 
L 443.526642 300.882365 
L 444.439915 300.44417 
L 447.179736 299.212447 
L 448.854071 298.449008 
L 449.615132 298.100427 
L 450.223981 297.79445 
L 451.137255 297.331159 
L 452.050528 296.910837 
L 452.659377 296.608994 
L 454.638137 295.794384 
L 456.769108 294.835748 
L 460.26999 293.144798 
L 464.379721 291.348885 
L 464.98857 291.003814 
L 466.358481 290.311323 
L 467.576179 289.692017 
L 468.793877 289.133599 
L 469.402726 288.901418 
L 482.797405 282.833675 
L 484.167315 282.277962 
L 486.298287 281.255203 
L 487.82041 280.582021 
L 492.843414 278.428675 
L 493.452263 278.137705 
L 505.32482 272.821256 
L 507.151367 271.941187 
L 507.912428 271.638819 
L 508.825702 271.289158 
L 509.586763 270.972717 
L 511.717734 269.976836 
L 512.478796 269.567024 
L 513.392069 269.147027 
L 514.457555 268.622593 
L 515.827465 268.03391 
L 518.567286 266.797426 
L 519.632772 266.234094 
L 522.372593 265.068796 
L 523.285866 264.761825 
L 524.503564 264.197107 
L 525.721262 263.705093 
L 526.482324 263.378013 
L 527.243385 263.006553 
L 528.004446 262.678097 
L 529.526569 261.914432 
L 532.26639 260.726981 
L 533.6363 260.098011 
L 540.029215 257.100034 
L 540.485852 256.847501 
L 541.246913 256.563394 
L 545.204432 254.779688 
L 546.117705 254.305658 
L 551.292922 251.980328 
L 552.053984 251.671831 
L 552.51062 251.45334 
L 554.032743 250.755048 
L 555.402653 250.170659 
L 557.381413 249.250787 
L 559.816809 248.210381 
L 574.581398 241.231984 
L 577.930068 239.694105 
L 578.995554 239.108053 
L 579.756615 238.820339 
L 580.365464 238.566414 
L 584.018558 236.890912 
L 584.77962 236.469174 
L 588.584926 234.788522 
L 589.193775 234.49988 
L 590.107049 234.067856 
L 590.563685 233.864571 
L 591.020322 233.669829 
L 596.043327 231.46571 
L 597.108813 231.051508 
L 598.326511 230.48639 
L 599.239784 230.065243 
L 605.937124 226.993655 
L 607.00261 226.615039 
L 610.807916 224.800203 
L 612.330039 224.057253 
L 612.786676 223.886682 
L 613.243312 223.630176 
L 614.156586 223.226748 
L 615.678708 222.519621 
L 617.048619 221.938115 
L 620.549501 220.34668 
L 622.223836 219.665878 
L 623.289322 219.180344 
L 625.268081 218.24409 
L 626.029142 217.90483 
L 627.703477 217.161756 
L 628.616751 216.689197 
L 629.377812 216.348146 
L 630.443298 215.940882 
L 631.052147 215.639438 
L 634.400817 214.048899 
L 635.466302 213.563686 
L 637.445062 212.660979 
L 638.053911 212.450065 
L 638.814972 212.099344 
L 640.641519 211.210104 
L 641.098156 210.975242 
L 643.837977 209.721091 
L 646.425585 208.588462 
L 647.034434 208.288918 
L 657.080443 203.603391 
L 658.450354 203.0403 
L 660.276901 202.351305 
L 661.951236 201.650514 
L 663.777783 200.862828 
L 664.691056 200.42511 
L 666.822028 199.464333 
L 667.735302 199.07183 
L 670.32291 197.979276 
L 670.627335 197.859612 
L 672.301669 197.043361 
L 673.519368 196.530856 
L 678.085735 194.321331 
L 678.694584 194.009281 
L 681.129981 193.027294 
L 683.717589 191.789187 
L 684.326438 191.568283 
L 684.783075 191.29518 
L 685.848561 190.764295 
L 687.522895 190.051215 
L 688.892806 189.507872 
L 690.567141 188.770639 
L 692.241476 188.037842 
L 692.698112 187.78957 
L 693.306961 187.547678 
L 695.590145 186.5605 
L 697.112268 185.876117 
L 697.568905 185.698451 
L 698.329966 185.40082 
L 701.98306 183.792757 
L 702.896334 183.388384 
L 704.266244 182.820413 
L 705.027305 182.504343 
L 707.006065 181.573389 
L 707.614914 181.255988 
L 708.528187 180.796185 
L 714.160041 178.186646 
L 715.834376 177.322974 
L 716.291013 177.102887 
L 717.204286 176.719021 
L 717.965348 176.403573 
L 720.552956 175.162331 
L 721.314017 174.782824 
L 722.83614 174.080952 
L 724.510475 173.332205 
L 725.271536 172.984546 
L 727.706932 171.929876 
L 728.315781 171.695749 
L 729.076843 171.351337 
L 731.207814 170.333588 
L 731.816663 170.070882 
L 734.099847 168.940441 
L 736.687456 167.794975 
L 737.448517 167.434116 
L 738.514003 166.904727 
L 739.275064 166.569956 
L 739.731701 166.360006 
L 741.101611 165.850915 
L 741.862673 165.540885 
L 742.623734 165.222957 
L 744.298069 164.479466 
L 745.820191 163.757683 
L 746.581253 163.425804 
L 747.951163 162.85745 
L 748.560012 162.566405 
L 750.234347 161.749162 
L 750.843196 161.468237 
L 759.367083 157.698183 
L 762.56354 156.175722 
L 764.390087 155.347851 
L 765.607785 154.749585 
L 766.521059 154.32114 
L 767.890969 153.702324 
L 768.65203 153.310512 
L 770.021941 152.749962 
L 778.850252 148.815926 
L 779.306889 148.615934 
L 779.915738 148.312105 
L 780.676799 147.969982 
L 781.43786 147.654913 
L 782.046709 147.390741 
L 782.351134 147.207864 
L 782.959983 146.931316 
L 784.634318 146.125539 
L 785.395379 145.743024 
L 786.917502 145.128849 
L 787.526351 144.832525 
L 788.287412 144.53911 
L 789.352898 144.044814 
L 789.961747 143.742572 
L 791.940506 142.826061 
L 804.269699 137.274151 
L 805.487397 136.687185 
L 812.184737 133.747386 
L 812.945798 133.320066 
L 816.142256 131.768755 
L 816.751105 131.415229 
L 817.664378 131.039609 
L 818.42544 130.755686 
L 826.949326 126.934336 
L 828.928086 125.994063 
L 830.754633 125.143024 
L 836.843123 122.455441 
L 838.517458 121.753758 
L 841.713916 120.048993 
L 847.954618 117.209168 
L 848.259043 117.061175 
L 848.867892 116.76713 
L 849.781165 116.401517 
L 850.390014 116.125133 
L 851.151076 115.717498 
L 853.738684 114.515856 
L 855.869656 113.688023 
L 856.935142 113.236246 
L 858.457264 112.479183 
L 859.370538 112.097517 
L 866.524514 108.948568 
L 871.090882 107.041223 
L 884.333348 100.999276 
L 886.159896 100.065102 
L 886.768745 99.83454 
L 887.529806 99.469928 
L 895.140419 95.976699 
L 898.641301 94.248667 
L 899.706787 93.798326 
L 900.467848 93.388788 
L 901.076697 93.138434 
L 902.751032 92.380321 
L 903.816518 91.870993 
L 904.425367 91.60473 
L 905.034216 91.322487 
L 917.972258 85.254376 
L 918.885532 84.847084 
L 919.951017 84.366131 
L 920.255442 84.23595 
L 920.864291 83.93472 
L 924.365173 82.403423 
L 925.278447 81.945277 
L 928.322692 80.619048 
L 928.931541 80.291472 
L 929.844814 79.84935 
L 931.975786 78.872945 
L 933.041272 78.246626 
L 933.954545 77.776364 
L 933.954545 77.776364 
" style="fill:none;stroke:#2ca02c;stroke-linecap:round;stroke-width:1.5;"/>
   </g>
   <g id="patch_3">
    <path d="M 135 441 
L 135 60.48 
" style="fill:none;stroke:#cccccc;stroke-linecap:square;stroke-linejoin:miter;stroke-width:0.8;"/>
   </g>
   <g id="patch_4">
    <path d="M 972 441 
L 972 60.48 
" style="fill:none;stroke:#cccccc;stroke-linecap:square;stroke-linejoin:miter;stroke-width:0.8;"/>
   </g>
   <g id="patch_5">
    <path d="M 135 441 
L 972 441 
" style="fill:none;stroke:#cccccc;stroke-linecap:square;stroke-linejoin:miter;stroke-width:0.8;"/>
   </g>
   <g id="patch_6">
    <path d="M 135 60.48 
L 972 60.48 
" style="fill:none;stroke:#cccccc;stroke-linecap:square;stroke-linejoin:miter;stroke-width:0.8;"/>
   </g>
   <g id="text_18">
    <!-- Gains cumulés pour les stratégies Baseline -->
    <defs>
     <path d="M 44.28125 53.078125 
L 44.28125 44.578125 
Q 40.484375 46.53125 36.375 47.5 
Q 32.28125 48.484375 27.875 48.484375 
Q 21.1875 48.484375 17.84375 46.4375 
Q 14.5 44.390625 14.5 40.28125 
Q 14.5 37.15625 16.890625 35.375 
Q 19.28125 33.59375 26.515625 31.984375 
L 29.59375 31.296875 
Q 39.15625 29.25 43.1875 25.515625 
Q 47.21875 21.78125 47.21875 15.09375 
Q 47.21875 7.46875 41.1875 3.015625 
Q 35.15625 -1.421875 24.609375 -1.421875 
Q 20.21875 -1.421875 15.453125 -0.5625 
Q 10.6875 0.296875 5.421875 2 
L 5.421875 11.28125 
Q 10.40625 8.6875 15.234375 7.390625 
Q 20.0625 6.109375 24.8125 6.109375 
Q 31.15625 6.109375 34.5625 8.28125 
Q 37.984375 10.453125 37.984375 14.40625 
Q 37.984375 18.0625 35.515625 20.015625 
Q 33.0625 21.96875 24.703125 23.78125 
L 21.578125 24.515625 
Q 13.234375 26.265625 9.515625 29.90625 
Q 5.8125 33.546875 5.8125 39.890625 
Q 5.8125 47.609375 11.28125 51.796875 
Q 16.75 56 26.8125 56 
Q 31.78125 56 36.171875 55.265625 
Q 40.578125 54.546875 44.28125 53.078125 
z
" id="DejaVuSans-115"/>
     <path d="M 18.109375 8.203125 
L 18.109375 -20.796875 
L 9.078125 -20.796875 
L 9.078125 54.6875 
L 18.109375 54.6875 
L 18.109375 46.390625 
Q 20.953125 51.265625 25.265625 53.625 
Q 29.59375 56 35.59375 56 
Q 45.5625 56 51.78125 48.09375 
Q 58.015625 40.1875 58.015625 27.296875 
Q 58.015625 14.40625 51.78125 6.484375 
Q 45.5625 -1.421875 35.59375 -1.421875 
Q 29.59375 -1.421875 25.265625 0.953125 
Q 20.953125 3.328125 18.109375 8.203125 
z
M 48.6875 27.296875 
Q 48.6875 37.203125 44.609375 42.84375 
Q 40.53125 48.484375 33.40625 48.484375 
Q 26.265625 48.484375 22.1875 42.84375 
Q 18.109375 37.203125 18.109375 27.296875 
Q 18.109375 17.390625 22.1875 11.75 
Q 26.265625 6.109375 33.40625 6.109375 
Q 40.53125 6.109375 44.609375 11.75 
Q 48.6875 17.390625 48.6875 27.296875 
z
" id="DejaVuSans-112"/>
     <path d="M 56.203125 29.59375 
L 56.203125 25.203125 
L 14.890625 25.203125 
Q 15.484375 15.921875 20.484375 11.0625 
Q 25.484375 6.203125 34.421875 6.203125 
Q 39.59375 6.203125 44.453125 7.46875 
Q 49.3125 8.734375 54.109375 11.28125 
L 54.109375 2.78125 
Q 49.265625 0.734375 44.1875 -0.34375 
Q 39.109375 -1.421875 33.890625 -1.421875 
Q 20.796875 -1.421875 13.15625 6.1875 
Q 5.515625 13.8125 5.515625 26.8125 
Q 5.515625 40.234375 12.765625 48.109375 
Q 20.015625 56 32.328125 56 
Q 43.359375 56 49.78125 48.890625 
Q 56.203125 41.796875 56.203125 29.59375 
z
M 47.21875 32.234375 
Q 47.125 39.59375 43.09375 43.984375 
Q 39.0625 48.390625 32.421875 48.390625 
Q 24.90625 48.390625 20.390625 44.140625 
Q 15.875 39.890625 15.1875 32.171875 
z
" id="DejaVuSans-101"/>
     <path d="M 45.40625 27.984375 
Q 45.40625 37.75 41.375 43.109375 
Q 37.359375 48.484375 30.078125 48.484375 
Q 22.859375 48.484375 18.828125 43.109375 
Q 14.796875 37.75 14.796875 27.984375 
Q 14.796875 18.265625 18.828125 12.890625 
Q 22.859375 7.515625 30.078125 7.515625 
Q 37.359375 7.515625 41.375 12.890625 
Q 45.40625 18.265625 45.40625 27.984375 
z
M 54.390625 6.78125 
Q 54.390625 -7.171875 48.1875 -13.984375 
Q 42 -20.796875 29.203125 -20.796875 
Q 24.46875 -20.796875 20.265625 -20.09375 
Q 16.0625 -19.390625 12.109375 -17.921875 
L 12.109375 -9.1875 
Q 16.0625 -11.328125 19.921875 -12.34375 
Q 23.78125 -13.375 27.78125 -13.375 
Q 36.625 -13.375 41.015625 -8.765625 
Q 45.40625 -4.15625 45.40625 5.171875 
L 45.40625 9.625 
Q 42.625 4.78125 38.28125 2.390625 
Q 33.9375 0 27.875 0 
Q 17.828125 0 11.671875 7.65625 
Q 5.515625 15.328125 5.515625 27.984375 
Q 5.515625 40.671875 11.671875 48.328125 
Q 17.828125 56 27.875 56 
Q 33.9375 56 38.28125 53.609375 
Q 42.625 51.21875 45.40625 46.390625 
L 45.40625 54.6875 
L 54.390625 54.6875 
z
" id="DejaVuSans-103"/>
     <path d="M 19.671875 34.8125 
L 19.671875 8.109375 
L 35.5 8.109375 
Q 43.453125 8.109375 47.28125 11.40625 
Q 51.125 14.703125 51.125 21.484375 
Q 51.125 28.328125 47.28125 31.5625 
Q 43.453125 34.8125 35.5 34.8125 
z
M 19.671875 64.796875 
L 19.671875 42.828125 
L 34.28125 42.828125 
Q 41.5 42.828125 45.03125 45.53125 
Q 48.578125 48.25 48.578125 53.8125 
Q 48.578125 59.328125 45.03125 62.0625 
Q 41.5 64.796875 34.28125 64.796875 
z
M 9.8125 72.90625 
L 35.015625 72.90625 
Q 46.296875 72.90625 52.390625 68.21875 
Q 58.5 63.53125 58.5 54.890625 
Q 58.5 48.1875 55.375 44.234375 
Q 52.25 40.28125 46.1875 39.3125 
Q 53.46875 37.75 57.5 32.78125 
Q 61.53125 27.828125 61.53125 20.40625 
Q 61.53125 10.640625 54.890625 5.3125 
Q 48.25 0 35.984375 0 
L 9.8125 0 
z
" id="DejaVuSans-66"/>
    </defs>
    <g style="fill:#262626;" transform="translate(424.180313 54.48)scale(0.12 -0.12)">
     <use xlink:href="#DejaVuSans-71"/>
     <use x="77.490234" xlink:href="#DejaVuSans-97"/>
     <use x="138.769531" xlink:href="#DejaVuSans-105"/>
     <use x="166.552734" xlink:href="#DejaVuSans-110"/>
     <use x="229.931641" xlink:href="#DejaVuSans-115"/>
     <use x="282.03125" xlink:href="#DejaVuSans-32"/>
     <use x="313.818359" xlink:href="#DejaVuSans-99"/>
     <use x="368.798828" xlink:href="#DejaVuSans-117"/>
     <use x="432.177734" xlink:href="#DejaVuSans-109"/>
     <use x="529.589844" xlink:href="#DejaVuSans-117"/>
     <use x="592.96875" xlink:href="#DejaVuSans-108"/>
     <use x="620.751953" xlink:href="#DejaVuSans-233"/>
     <use x="682.275391" xlink:href="#DejaVuSans-115"/>
     <use x="734.375" xlink:href="#DejaVuSans-32"/>
     <use x="766.162109" xlink:href="#DejaVuSans-112"/>
     <use x="829.638672" xlink:href="#DejaVuSans-111"/>
     <use x="890.820312" xlink:href="#DejaVuSans-117"/>
     <use x="954.199219" xlink:href="#DejaVuSans-114"/>
     <use x="995.3125" xlink:href="#DejaVuSans-32"/>
     <use x="1027.099609" xlink:href="#DejaVuSans-108"/>
     <use x="1054.882812" xlink:href="#DejaVuSans-101"/>
     <use x="1116.40625" xlink:href="#DejaVuSans-115"/>
     <use x="1168.505859" xlink:href="#DejaVuSans-32"/>
     <use x="1200.292969" xlink:href="#DejaVuSans-115"/>
     <use x="1252.392578" xlink:href="#DejaVuSans-116"/>
     <use x="1291.601562" xlink:href="#DejaVuSans-114"/>
     <use x="1332.714844" xlink:href="#DejaVuSans-97"/>
     <use x="1393.994141" xlink:href="#DejaVuSans-116"/>
     <use x="1433.203125" xlink:href="#DejaVuSans-233"/>
     <use x="1494.726562" xlink:href="#DejaVuSans-103"/>
     <use x="1558.203125" xlink:href="#DejaVuSans-105"/>
     <use x="1585.986328" xlink:href="#DejaVuSans-101"/>
     <use x="1647.509766" xlink:href="#DejaVuSans-115"/>
     <use x="1699.609375" xlink:href="#DejaVuSans-32"/>
     <use x="1731.396484" xlink:href="#DejaVuSans-66"/>
     <use x="1800" xlink:href="#DejaVuSans-97"/>
     <use x="1861.279297" xlink:href="#DejaVuSans-115"/>
     <use x="1913.378906" xlink:href="#DejaVuSans-101"/>
     <use x="1974.902344" xlink:href="#DejaVuSans-108"/>
     <use x="2002.685547" xlink:href="#DejaVuSans-105"/>
     <use x="2030.46875" xlink:href="#DejaVuSans-110"/>
     <use x="2093.847656" xlink:href="#DejaVuSans-101"/>
    </g>
   </g>
   <g id="legend_1">
    <g id="patch_7">
     <path d="M 142 112.514375 
L 224.7375 112.514375 
Q 226.7375 112.514375 226.7375 110.514375 
L 226.7375 67.48 
Q 226.7375 65.48 224.7375 65.48 
L 142 65.48 
Q 140 65.48 140 67.48 
L 140 110.514375 
Q 140 112.514375 142 112.514375 
z
" style="fill:#ffffff;opacity:0.8;stroke:#cccccc;stroke-linejoin:miter;"/>
    </g>
    <g id="line2d_19">
     <path d="M 144 73.578438 
L 164 73.578438 
" style="fill:none;stroke:#1f77b4;stroke-linecap:round;stroke-width:1.5;"/>
    </g>
    <g id="line2d_20"/>
    <g id="text_19">
     <!-- Random -->
     <defs>
      <path d="M 44.390625 34.1875 
Q 47.5625 33.109375 50.5625 29.59375 
Q 53.5625 26.078125 56.59375 19.921875 
L 66.609375 0 
L 56 0 
L 46.6875 18.703125 
Q 43.0625 26.03125 39.671875 28.421875 
Q 36.28125 30.8125 30.421875 30.8125 
L 19.671875 30.8125 
L 19.671875 0 
L 9.8125 0 
L 9.8125 72.90625 
L 32.078125 72.90625 
Q 44.578125 72.90625 50.734375 67.671875 
Q 56.890625 62.453125 56.890625 51.90625 
Q 56.890625 45.015625 53.6875 40.46875 
Q 50.484375 35.9375 44.390625 34.1875 
z
M 19.671875 64.796875 
L 19.671875 38.921875 
L 32.078125 38.921875 
Q 39.203125 38.921875 42.84375 42.21875 
Q 46.484375 45.515625 46.484375 51.90625 
Q 46.484375 58.296875 42.84375 61.546875 
Q 39.203125 64.796875 32.078125 64.796875 
z
" id="DejaVuSans-82"/>
      <path d="M 45.40625 46.390625 
L 45.40625 75.984375 
L 54.390625 75.984375 
L 54.390625 0 
L 45.40625 0 
L 45.40625 8.203125 
Q 42.578125 3.328125 38.25 0.953125 
Q 33.9375 -1.421875 27.875 -1.421875 
Q 17.96875 -1.421875 11.734375 6.484375 
Q 5.515625 14.40625 5.515625 27.296875 
Q 5.515625 40.1875 11.734375 48.09375 
Q 17.96875 56 27.875 56 
Q 33.9375 56 38.25 53.625 
Q 42.578125 51.265625 45.40625 46.390625 
z
M 14.796875 27.296875 
Q 14.796875 17.390625 18.875 11.75 
Q 22.953125 6.109375 30.078125 6.109375 
Q 37.203125 6.109375 41.296875 11.75 
Q 45.40625 17.390625 45.40625 27.296875 
Q 45.40625 37.203125 41.296875 42.84375 
Q 37.203125 48.484375 30.078125 48.484375 
Q 22.953125 48.484375 18.875 42.84375 
Q 14.796875 37.203125 14.796875 27.296875 
z
" id="DejaVuSans-100"/>
     </defs>
     <g style="fill:#262626;" transform="translate(172 77.078438)scale(0.1 -0.1)">
      <use xlink:href="#DejaVuSans-82"/>
      <use x="69.451172" xlink:href="#DejaVuSans-97"/>
      <use x="130.730469" xlink:href="#DejaVuSans-110"/>
      <use x="194.109375" xlink:href="#DejaVuSans-100"/>
      <use x="257.585938" xlink:href="#DejaVuSans-111"/>
      <use x="318.767578" xlink:href="#DejaVuSans-109"/>
     </g>
    </g>
    <g id="line2d_21">
     <path d="M 144 88.256563 
L 164 88.256563 
" style="fill:none;stroke:#ff7f0e;stroke-linecap:round;stroke-width:1.5;"/>
    </g>
    <g id="line2d_22"/>
    <g id="text_20">
     <!-- StaticBest -->
     <defs>
      <path d="M 53.515625 70.515625 
L 53.515625 60.890625 
Q 47.90625 63.578125 42.921875 64.890625 
Q 37.9375 66.21875 33.296875 66.21875 
Q 25.25 66.21875 20.875 63.09375 
Q 16.5 59.96875 16.5 54.203125 
Q 16.5 49.359375 19.40625 46.890625 
Q 22.3125 44.4375 30.421875 42.921875 
L 36.375 41.703125 
Q 47.40625 39.59375 52.65625 34.296875 
Q 57.90625 29 57.90625 20.125 
Q 57.90625 9.515625 50.796875 4.046875 
Q 43.703125 -1.421875 29.984375 -1.421875 
Q 24.8125 -1.421875 18.96875 -0.25 
Q 13.140625 0.921875 6.890625 3.21875 
L 6.890625 13.375 
Q 12.890625 10.015625 18.65625 8.296875 
Q 24.421875 6.59375 29.984375 6.59375 
Q 38.421875 6.59375 43.015625 9.90625 
Q 47.609375 13.234375 47.609375 19.390625 
Q 47.609375 24.75 44.3125 27.78125 
Q 41.015625 30.8125 33.5 32.328125 
L 27.484375 33.5 
Q 16.453125 35.6875 11.515625 40.375 
Q 6.59375 45.0625 6.59375 53.421875 
Q 6.59375 63.09375 13.40625 68.65625 
Q 20.21875 74.21875 32.171875 74.21875 
Q 37.3125 74.21875 42.625 73.28125 
Q 47.953125 72.359375 53.515625 70.515625 
z
" id="DejaVuSans-83"/>
     </defs>
     <g style="fill:#262626;" transform="translate(172 91.756563)scale(0.1 -0.1)">
      <use xlink:href="#DejaVuSans-83"/>
      <use x="63.476562" xlink:href="#DejaVuSans-116"/>
      <use x="102.685547" xlink:href="#DejaVuSans-97"/>
      <use x="163.964844" xlink:href="#DejaVuSans-116"/>
      <use x="203.173828" xlink:href="#DejaVuSans-105"/>
      <use x="230.957031" xlink:href="#DejaVuSans-99"/>
      <use x="285.9375" xlink:href="#DejaVuSans-66"/>
      <use x="354.541016" xlink:href="#DejaVuSans-101"/>
      <use x="416.064453" xlink:href="#DejaVuSans-115"/>
      <use x="468.164062" xlink:href="#DejaVuSans-116"/>
     </g>
    </g>
    <g id="line2d_23">
     <path d="M 144 102.934687 
L 164 102.934687 
" style="fill:none;stroke:#2ca02c;stroke-linecap:round;stroke-width:1.5;"/>
    </g>
    <g id="line2d_24"/>
    <g id="text_21">
     <!-- Optimale -->
     <defs>
      <path d="M 39.40625 66.21875 
Q 28.65625 66.21875 22.328125 58.203125 
Q 16.015625 50.203125 16.015625 36.375 
Q 16.015625 22.609375 22.328125 14.59375 
Q 28.65625 6.59375 39.40625 6.59375 
Q 50.140625 6.59375 56.421875 14.59375 
Q 62.703125 22.609375 62.703125 36.375 
Q 62.703125 50.203125 56.421875 58.203125 
Q 50.140625 66.21875 39.40625 66.21875 
z
M 39.40625 74.21875 
Q 54.734375 74.21875 63.90625 63.9375 
Q 73.09375 53.65625 73.09375 36.375 
Q 73.09375 19.140625 63.90625 8.859375 
Q 54.734375 -1.421875 39.40625 -1.421875 
Q 24.03125 -1.421875 14.8125 8.828125 
Q 5.609375 19.09375 5.609375 36.375 
Q 5.609375 53.65625 14.8125 63.9375 
Q 24.03125 74.21875 39.40625 74.21875 
z
" id="DejaVuSans-79"/>
     </defs>
     <g style="fill:#262626;" transform="translate(172 106.434687)scale(0.1 -0.1)">
      <use xlink:href="#DejaVuSans-79"/>
      <use x="78.710938" xlink:href="#DejaVuSans-112"/>
      <use x="142.1875" xlink:href="#DejaVuSans-116"/>
      <use x="181.396484" xlink:href="#DejaVuSans-105"/>
      <use x="209.179688" xlink:href="#DejaVuSans-109"/>
      <use x="306.591797" xlink:href="#DejaVuSans-97"/>
      <use x="367.871094" xlink:href="#DejaVuSans-108"/>
      <use x="395.654297" xlink:href="#DejaVuSans-101"/>
     </g>
    </g>
   </g>
  </g>
 </g>
 <defs>
  <clipPath id="p4d20e1a1eb">
   <rect height="380.52" width="837" x="135" y="60.48"/>
  </clipPath>
 </defs>
</svg>
