<?xml version="1.0" encoding="utf-8" standalone="no"?>
<!DOCTYPE svg PUBLIC "-//W3C//DTD SVG 1.1//EN"
  "http://www.w3.org/Graphics/SVG/1.1/DTD/svg11.dtd">
<!-- Created with matplotlib (https://matplotlib.org/) -->
<svg height="504pt" version="1.1" viewBox="0 0 1080 504" width="1080pt" xmlns="http://www.w3.org/2000/svg" xmlns:xlink="http://www.w3.org/1999/xlink">
 <defs>
  <style type="text/css">
*{stroke-linecap:butt;stroke-linejoin:round;}
  </style>
 </defs>
 <g id="figure_1">
  <g id="patch_1">
   <path d="M 0 504 
L 1080 504 
L 1080 0 
L 0 0 
z
" style="fill:#ffffff;"/>
  </g>
  <g id="axes_1">
   <g id="patch_2">
    <path d="M 135 441 
L 972 441 
L 972 60.48 
L 135 60.48 
z
" style="fill:#ffffff;"/>
   </g>
   <g id="matplotlib.axis_1">
    <g id="xtick_1">
     <g id="line2d_1">
      <path clip-path="url(#pf5c74c28f0)" d="M 173.045455 441 
L 173.045455 60.48 
" style="fill:none;stroke:#cccccc;stroke-linecap:round;stroke-width:0.8;"/>
     </g>
     <g id="text_1">
      <!-- 0 -->
      <defs>
       <path d="M 31.78125 66.40625 
Q 24.171875 66.40625 20.328125 58.90625 
Q 16.5 51.421875 16.5 36.375 
Q 16.5 21.390625 20.328125 13.890625 
Q 24.171875 6.390625 31.78125 6.390625 
Q 39.453125 6.390625 43.28125 13.890625 
Q 47.125 21.390625 47.125 36.375 
Q 47.125 51.421875 43.28125 58.90625 
Q 39.453125 66.40625 31.78125 66.40625 
z
M 31.78125 74.21875 
Q 44.046875 74.21875 50.515625 64.515625 
Q 56.984375 54.828125 56.984375 36.375 
Q 56.984375 17.96875 50.515625 8.265625 
Q 44.046875 -1.421875 31.78125 -1.421875 
Q 19.53125 -1.421875 13.0625 8.265625 
Q 6.59375 17.96875 6.59375 36.375 
Q 6.59375 54.828125 13.0625 64.515625 
Q 19.53125 74.21875 31.78125 74.21875 
z
" id="DejaVuSans-48"/>
      </defs>
      <g style="fill:#262626;" transform="translate(169.864205 455.598437)scale(0.1 -0.1)">
       <use xlink:href="#DejaVuSans-48"/>
      </g>
     </g>
    </g>
    <g id="xtick_2">
     <g id="line2d_2">
      <path clip-path="url(#pf5c74c28f0)" d="M 325.257715 441 
L 325.257715 60.48 
" style="fill:none;stroke:#cccccc;stroke-linecap:round;stroke-width:0.8;"/>
     </g>
     <g id="text_2">
      <!-- 1000 -->
      <defs>
       <path d="M 12.40625 8.296875 
L 28.515625 8.296875 
L 28.515625 63.921875 
L 10.984375 60.40625 
L 10.984375 69.390625 
L 28.421875 72.90625 
L 38.28125 72.90625 
L 38.28125 8.296875 
L 54.390625 8.296875 
L 54.390625 0 
L 12.40625 0 
z
" id="DejaVuSans-49"/>
      </defs>
      <g style="fill:#262626;" transform="translate(312.532715 455.598437)scale(0.1 -0.1)">
       <use xlink:href="#DejaVuSans-49"/>
       <use x="63.623047" xlink:href="#DejaVuSans-48"/>
       <use x="127.246094" xlink:href="#DejaVuSans-48"/>
       <use x="190.869141" xlink:href="#DejaVuSans-48"/>
      </g>
     </g>
    </g>
    <g id="xtick_3">
     <g id="line2d_3">
      <path clip-path="url(#pf5c74c28f0)" d="M 477.469976 441 
L 477.469976 60.48 
" style="fill:none;stroke:#cccccc;stroke-linecap:round;stroke-width:0.8;"/>
     </g>
     <g id="text_3">
      <!-- 2000 -->
      <defs>
       <path d="M 19.1875 8.296875 
L 53.609375 8.296875 
L 53.609375 0 
L 7.328125 0 
L 7.328125 8.296875 
Q 12.9375 14.109375 22.625 23.890625 
Q 32.328125 33.6875 34.8125 36.53125 
Q 39.546875 41.84375 41.421875 45.53125 
Q 43.3125 49.21875 43.3125 52.78125 
Q 43.3125 58.59375 39.234375 62.25 
Q 35.15625 65.921875 28.609375 65.921875 
Q 23.96875 65.921875 18.8125 64.3125 
Q 13.671875 62.703125 7.8125 59.421875 
L 7.8125 69.390625 
Q 13.765625 71.78125 18.9375 73 
Q 24.125 74.21875 28.421875 74.21875 
Q 39.75 74.21875 46.484375 68.546875 
Q 53.21875 62.890625 53.21875 53.421875 
Q 53.21875 48.921875 51.53125 44.890625 
Q 49.859375 40.875 45.40625 35.40625 
Q 44.1875 33.984375 37.640625 27.21875 
Q 31.109375 20.453125 19.1875 8.296875 
z
" id="DejaVuSans-50"/>
      </defs>
      <g style="fill:#262626;" transform="translate(464.744976 455.598437)scale(0.1 -0.1)">
       <use xlink:href="#DejaVuSans-50"/>
       <use x="63.623047" xlink:href="#DejaVuSans-48"/>
       <use x="127.246094" xlink:href="#DejaVuSans-48"/>
       <use x="190.869141" xlink:href="#DejaVuSans-48"/>
      </g>
     </g>
    </g>
    <g id="xtick_4">
     <g id="line2d_4">
      <path clip-path="url(#pf5c74c28f0)" d="M 629.682236 441 
L 629.682236 60.48 
" style="fill:none;stroke:#cccccc;stroke-linecap:round;stroke-width:0.8;"/>
     </g>
     <g id="text_4">
      <!-- 3000 -->
      <defs>
       <path d="M 40.578125 39.3125 
Q 47.65625 37.796875 51.625 33 
Q 55.609375 28.21875 55.609375 21.1875 
Q 55.609375 10.40625 48.1875 4.484375 
Q 40.765625 -1.421875 27.09375 -1.421875 
Q 22.515625 -1.421875 17.65625 -0.515625 
Q 12.796875 0.390625 7.625 2.203125 
L 7.625 11.71875 
Q 11.71875 9.328125 16.59375 8.109375 
Q 21.484375 6.890625 26.8125 6.890625 
Q 36.078125 6.890625 40.9375 10.546875 
Q 45.796875 14.203125 45.796875 21.1875 
Q 45.796875 27.640625 41.28125 31.265625 
Q 36.765625 34.90625 28.71875 34.90625 
L 20.21875 34.90625 
L 20.21875 43.015625 
L 29.109375 43.015625 
Q 36.375 43.015625 40.234375 45.921875 
Q 44.09375 48.828125 44.09375 54.296875 
Q 44.09375 59.90625 40.109375 62.90625 
Q 36.140625 65.921875 28.71875 65.921875 
Q 24.65625 65.921875 20.015625 65.03125 
Q 15.375 64.15625 9.8125 62.3125 
L 9.8125 71.09375 
Q 15.4375 72.65625 20.34375 73.4375 
Q 25.25 74.21875 29.59375 74.21875 
Q 40.828125 74.21875 47.359375 69.109375 
Q 53.90625 64.015625 53.90625 55.328125 
Q 53.90625 49.265625 50.4375 45.09375 
Q 46.96875 40.921875 40.578125 39.3125 
z
" id="DejaVuSans-51"/>
      </defs>
      <g style="fill:#262626;" transform="translate(616.957236 455.598437)scale(0.1 -0.1)">
       <use xlink:href="#DejaVuSans-51"/>
       <use x="63.623047" xlink:href="#DejaVuSans-48"/>
       <use x="127.246094" xlink:href="#DejaVuSans-48"/>
       <use x="190.869141" xlink:href="#DejaVuSans-48"/>
      </g>
     </g>
    </g>
    <g id="xtick_5">
     <g id="line2d_5">
      <path clip-path="url(#pf5c74c28f0)" d="M 781.894497 441 
L 781.894497 60.48 
" style="fill:none;stroke:#cccccc;stroke-linecap:round;stroke-width:0.8;"/>
     </g>
     <g id="text_5">
      <!-- 4000 -->
      <defs>
       <path d="M 37.796875 64.3125 
L 12.890625 25.390625 
L 37.796875 25.390625 
z
M 35.203125 72.90625 
L 47.609375 72.90625 
L 47.609375 25.390625 
L 58.015625 25.390625 
L 58.015625 17.1875 
L 47.609375 17.1875 
L 47.609375 0 
L 37.796875 0 
L 37.796875 17.1875 
L 4.890625 17.1875 
L 4.890625 26.703125 
z
" id="DejaVuSans-52"/>
      </defs>
      <g style="fill:#262626;" transform="translate(769.169497 455.598437)scale(0.1 -0.1)">
       <use xlink:href="#DejaVuSans-52"/>
       <use x="63.623047" xlink:href="#DejaVuSans-48"/>
       <use x="127.246094" xlink:href="#DejaVuSans-48"/>
       <use x="190.869141" xlink:href="#DejaVuSans-48"/>
      </g>
     </g>
    </g>
    <g id="xtick_6">
     <g id="line2d_6">
      <path clip-path="url(#pf5c74c28f0)" d="M 934.106758 441 
L 934.106758 60.48 
" style="fill:none;stroke:#cccccc;stroke-linecap:round;stroke-width:0.8;"/>
     </g>
     <g id="text_6">
      <!-- 5000 -->
      <defs>
       <path d="M 10.796875 72.90625 
L 49.515625 72.90625 
L 49.515625 64.59375 
L 19.828125 64.59375 
L 19.828125 46.734375 
Q 21.96875 47.46875 24.109375 47.828125 
Q 26.265625 48.1875 28.421875 48.1875 
Q 40.625 48.1875 47.75 41.5 
Q 54.890625 34.8125 54.890625 23.390625 
Q 54.890625 11.625 47.5625 5.09375 
Q 40.234375 -1.421875 26.90625 -1.421875 
Q 22.3125 -1.421875 17.546875 -0.640625 
Q 12.796875 0.140625 7.71875 1.703125 
L 7.71875 11.625 
Q 12.109375 9.234375 16.796875 8.0625 
Q 21.484375 6.890625 26.703125 6.890625 
Q 35.15625 6.890625 40.078125 11.328125 
Q 45.015625 15.765625 45.015625 23.390625 
Q 45.015625 31 40.078125 35.4375 
Q 35.15625 39.890625 26.703125 39.890625 
Q 22.75 39.890625 18.8125 39.015625 
Q 14.890625 38.140625 10.796875 36.28125 
z
" id="DejaVuSans-53"/>
      </defs>
      <g style="fill:#262626;" transform="translate(921.381758 455.598437)scale(0.1 -0.1)">
       <use xlink:href="#DejaVuSans-53"/>
       <use x="63.623047" xlink:href="#DejaVuSans-48"/>
       <use x="127.246094" xlink:href="#DejaVuSans-48"/>
       <use x="190.869141" xlink:href="#DejaVuSans-48"/>
      </g>
     </g>
    </g>
    <g id="text_7">
     <!-- Itération -->
     <defs>
      <path d="M 9.8125 72.90625 
L 19.671875 72.90625 
L 19.671875 0 
L 9.8125 0 
z
" id="DejaVuSans-73"/>
      <path d="M 18.3125 70.21875 
L 18.3125 54.6875 
L 36.8125 54.6875 
L 36.8125 47.703125 
L 18.3125 47.703125 
L 18.3125 18.015625 
Q 18.3125 11.328125 20.140625 9.421875 
Q 21.96875 7.515625 27.59375 7.515625 
L 36.8125 7.515625 
L 36.8125 0 
L 27.59375 0 
Q 17.1875 0 13.234375 3.875 
Q 9.28125 7.765625 9.28125 18.015625 
L 9.28125 47.703125 
L 2.6875 47.703125 
L 2.6875 54.6875 
L 9.28125 54.6875 
L 9.28125 70.21875 
z
" id="DejaVuSans-116"/>
      <path d="M 56.203125 29.59375 
L 56.203125 25.203125 
L 14.890625 25.203125 
Q 15.484375 15.921875 20.484375 11.0625 
Q 25.484375 6.203125 34.421875 6.203125 
Q 39.59375 6.203125 44.453125 7.46875 
Q 49.3125 8.734375 54.109375 11.28125 
L 54.109375 2.78125 
Q 49.265625 0.734375 44.1875 -0.34375 
Q 39.109375 -1.421875 33.890625 -1.421875 
Q 20.796875 -1.421875 13.15625 6.1875 
Q 5.515625 13.8125 5.515625 26.8125 
Q 5.515625 40.234375 12.765625 48.109375 
Q 20.015625 56 32.328125 56 
Q 43.359375 56 49.78125 48.890625 
Q 56.203125 41.796875 56.203125 29.59375 
z
M 47.21875 32.234375 
Q 47.125 39.59375 43.09375 43.984375 
Q 39.0625 48.390625 32.421875 48.390625 
Q 24.90625 48.390625 20.390625 44.140625 
Q 15.875 39.890625 15.1875 32.171875 
z
M 38.578125 79.984375 
L 48.296875 79.984375 
L 32.375 61.625 
L 24.90625 61.625 
z
" id="DejaVuSans-233"/>
      <path d="M 41.109375 46.296875 
Q 39.59375 47.171875 37.8125 47.578125 
Q 36.03125 48 33.890625 48 
Q 26.265625 48 22.1875 43.046875 
Q 18.109375 38.09375 18.109375 28.8125 
L 18.109375 0 
L 9.078125 0 
L 9.078125 54.6875 
L 18.109375 54.6875 
L 18.109375 46.1875 
Q 20.953125 51.171875 25.484375 53.578125 
Q 30.03125 56 36.53125 56 
Q 37.453125 56 38.578125 55.875 
Q 39.703125 55.765625 41.0625 55.515625 
z
" id="DejaVuSans-114"/>
      <path d="M 34.28125 27.484375 
Q 23.390625 27.484375 19.1875 25 
Q 14.984375 22.515625 14.984375 16.5 
Q 14.984375 11.71875 18.140625 8.90625 
Q 21.296875 6.109375 26.703125 6.109375 
Q 34.1875 6.109375 38.703125 11.40625 
Q 43.21875 16.703125 43.21875 25.484375 
L 43.21875 27.484375 
z
M 52.203125 31.203125 
L 52.203125 0 
L 43.21875 0 
L 43.21875 8.296875 
Q 40.140625 3.328125 35.546875 0.953125 
Q 30.953125 -1.421875 24.3125 -1.421875 
Q 15.921875 -1.421875 10.953125 3.296875 
Q 6 8.015625 6 15.921875 
Q 6 25.140625 12.171875 29.828125 
Q 18.359375 34.515625 30.609375 34.515625 
L 43.21875 34.515625 
L 43.21875 35.40625 
Q 43.21875 41.609375 39.140625 45 
Q 35.0625 48.390625 27.6875 48.390625 
Q 23 48.390625 18.546875 47.265625 
Q 14.109375 46.140625 10.015625 43.890625 
L 10.015625 52.203125 
Q 14.9375 54.109375 19.578125 55.046875 
Q 24.21875 56 28.609375 56 
Q 40.484375 56 46.34375 49.84375 
Q 52.203125 43.703125 52.203125 31.203125 
z
" id="DejaVuSans-97"/>
      <path d="M 9.421875 54.6875 
L 18.40625 54.6875 
L 18.40625 0 
L 9.421875 0 
z
M 9.421875 75.984375 
L 18.40625 75.984375 
L 18.40625 64.59375 
L 9.421875 64.59375 
z
" id="DejaVuSans-105"/>
      <path d="M 30.609375 48.390625 
Q 23.390625 48.390625 19.1875 42.75 
Q 14.984375 37.109375 14.984375 27.296875 
Q 14.984375 17.484375 19.15625 11.84375 
Q 23.34375 6.203125 30.609375 6.203125 
Q 37.796875 6.203125 41.984375 11.859375 
Q 46.1875 17.53125 46.1875 27.296875 
Q 46.1875 37.015625 41.984375 42.703125 
Q 37.796875 48.390625 30.609375 48.390625 
z
M 30.609375 56 
Q 42.328125 56 49.015625 48.375 
Q 55.71875 40.765625 55.71875 27.296875 
Q 55.71875 13.875 49.015625 6.21875 
Q 42.328125 -1.421875 30.609375 -1.421875 
Q 18.84375 -1.421875 12.171875 6.21875 
Q 5.515625 13.875 5.515625 27.296875 
Q 5.515625 40.765625 12.171875 48.375 
Q 18.84375 56 30.609375 56 
z
" id="DejaVuSans-111"/>
      <path d="M 54.890625 33.015625 
L 54.890625 0 
L 45.90625 0 
L 45.90625 32.71875 
Q 45.90625 40.484375 42.875 44.328125 
Q 39.84375 48.1875 33.796875 48.1875 
Q 26.515625 48.1875 22.3125 43.546875 
Q 18.109375 38.921875 18.109375 30.90625 
L 18.109375 0 
L 9.078125 0 
L 9.078125 54.6875 
L 18.109375 54.6875 
L 18.109375 46.1875 
Q 21.34375 51.125 25.703125 53.5625 
Q 30.078125 56 35.796875 56 
Q 45.21875 56 50.046875 50.171875 
Q 54.890625 44.34375 54.890625 33.015625 
z
" id="DejaVuSans-110"/>
     </defs>
     <g style="fill:#262626;" transform="translate(523.807969 472.315938)scale(0.14 -0.14)">
      <use xlink:href="#DejaVuSans-73"/>
      <use x="29.492188" xlink:href="#DejaVuSans-116"/>
      <use x="68.701172" xlink:href="#DejaVuSans-233"/>
      <use x="130.224609" xlink:href="#DejaVuSans-114"/>
      <use x="171.337891" xlink:href="#DejaVuSans-97"/>
      <use x="232.617188" xlink:href="#DejaVuSans-116"/>
      <use x="271.826172" xlink:href="#DejaVuSans-105"/>
      <use x="299.609375" xlink:href="#DejaVuSans-111"/>
      <use x="360.791016" xlink:href="#DejaVuSans-110"/>
     </g>
    </g>
   </g>
   <g id="matplotlib.axis_2">
    <g id="ytick_1">
     <g id="line2d_7">
      <path clip-path="url(#pf5c74c28f0)" d="M 135 423.703636 
L 972 423.703636 
" style="fill:none;stroke:#cccccc;stroke-linecap:round;stroke-width:0.8;"/>
     </g>
     <g id="text_8">
      <!-- 0 -->
      <g style="fill:#262626;" transform="translate(121.6375 427.502855)scale(0.1 -0.1)">
       <use xlink:href="#DejaVuSans-48"/>
      </g>
     </g>
    </g>
    <g id="ytick_2">
     <g id="line2d_8">
      <path clip-path="url(#pf5c74c28f0)" d="M 135 363.853069 
L 972 363.853069 
" style="fill:none;stroke:#cccccc;stroke-linecap:round;stroke-width:0.8;"/>
     </g>
     <g id="text_9">
      <!-- 200 -->
      <g style="fill:#262626;" transform="translate(108.9125 367.652288)scale(0.1 -0.1)">
       <use xlink:href="#DejaVuSans-50"/>
       <use x="63.623047" xlink:href="#DejaVuSans-48"/>
       <use x="127.246094" xlink:href="#DejaVuSans-48"/>
      </g>
     </g>
    </g>
    <g id="ytick_3">
     <g id="line2d_9">
      <path clip-path="url(#pf5c74c28f0)" d="M 135 304.002502 
L 972 304.002502 
" style="fill:none;stroke:#cccccc;stroke-linecap:round;stroke-width:0.8;"/>
     </g>
     <g id="text_10">
      <!-- 400 -->
      <g style="fill:#262626;" transform="translate(108.9125 307.80172)scale(0.1 -0.1)">
       <use xlink:href="#DejaVuSans-52"/>
       <use x="63.623047" xlink:href="#DejaVuSans-48"/>
       <use x="127.246094" xlink:href="#DejaVuSans-48"/>
      </g>
     </g>
    </g>
    <g id="ytick_4">
     <g id="line2d_10">
      <path clip-path="url(#pf5c74c28f0)" d="M 135 244.151934 
L 972 244.151934 
" style="fill:none;stroke:#cccccc;stroke-linecap:round;stroke-width:0.8;"/>
     </g>
     <g id="text_11">
      <!-- 600 -->
      <defs>
       <path d="M 33.015625 40.375 
Q 26.375 40.375 22.484375 35.828125 
Q 18.609375 31.296875 18.609375 23.390625 
Q 18.609375 15.53125 22.484375 10.953125 
Q 26.375 6.390625 33.015625 6.390625 
Q 39.65625 6.390625 43.53125 10.953125 
Q 47.40625 15.53125 47.40625 23.390625 
Q 47.40625 31.296875 43.53125 35.828125 
Q 39.65625 40.375 33.015625 40.375 
z
M 52.59375 71.296875 
L 52.59375 62.3125 
Q 48.875 64.0625 45.09375 64.984375 
Q 41.3125 65.921875 37.59375 65.921875 
Q 27.828125 65.921875 22.671875 59.328125 
Q 17.53125 52.734375 16.796875 39.40625 
Q 19.671875 43.65625 24.015625 45.921875 
Q 28.375 48.1875 33.59375 48.1875 
Q 44.578125 48.1875 50.953125 41.515625 
Q 57.328125 34.859375 57.328125 23.390625 
Q 57.328125 12.15625 50.6875 5.359375 
Q 44.046875 -1.421875 33.015625 -1.421875 
Q 20.359375 -1.421875 13.671875 8.265625 
Q 6.984375 17.96875 6.984375 36.375 
Q 6.984375 53.65625 15.1875 63.9375 
Q 23.390625 74.21875 37.203125 74.21875 
Q 40.921875 74.21875 44.703125 73.484375 
Q 48.484375 72.75 52.59375 71.296875 
z
" id="DejaVuSans-54"/>
      </defs>
      <g style="fill:#262626;" transform="translate(108.9125 247.951153)scale(0.1 -0.1)">
       <use xlink:href="#DejaVuSans-54"/>
       <use x="63.623047" xlink:href="#DejaVuSans-48"/>
       <use x="127.246094" xlink:href="#DejaVuSans-48"/>
      </g>
     </g>
    </g>
    <g id="ytick_5">
     <g id="line2d_11">
      <path clip-path="url(#pf5c74c28f0)" d="M 135 184.301367 
L 972 184.301367 
" style="fill:none;stroke:#cccccc;stroke-linecap:round;stroke-width:0.8;"/>
     </g>
     <g id="text_12">
      <!-- 800 -->
      <defs>
       <path d="M 31.78125 34.625 
Q 24.75 34.625 20.71875 30.859375 
Q 16.703125 27.09375 16.703125 20.515625 
Q 16.703125 13.921875 20.71875 10.15625 
Q 24.75 6.390625 31.78125 6.390625 
Q 38.8125 6.390625 42.859375 10.171875 
Q 46.921875 13.96875 46.921875 20.515625 
Q 46.921875 27.09375 42.890625 30.859375 
Q 38.875 34.625 31.78125 34.625 
z
M 21.921875 38.8125 
Q 15.578125 40.375 12.03125 44.71875 
Q 8.5 49.078125 8.5 55.328125 
Q 8.5 64.0625 14.71875 69.140625 
Q 20.953125 74.21875 31.78125 74.21875 
Q 42.671875 74.21875 48.875 69.140625 
Q 55.078125 64.0625 55.078125 55.328125 
Q 55.078125 49.078125 51.53125 44.71875 
Q 48 40.375 41.703125 38.8125 
Q 48.828125 37.15625 52.796875 32.3125 
Q 56.78125 27.484375 56.78125 20.515625 
Q 56.78125 9.90625 50.3125 4.234375 
Q 43.84375 -1.421875 31.78125 -1.421875 
Q 19.734375 -1.421875 13.25 4.234375 
Q 6.78125 9.90625 6.78125 20.515625 
Q 6.78125 27.484375 10.78125 32.3125 
Q 14.796875 37.15625 21.921875 38.8125 
z
M 18.3125 54.390625 
Q 18.3125 48.734375 21.84375 45.5625 
Q 25.390625 42.390625 31.78125 42.390625 
Q 38.140625 42.390625 41.71875 45.5625 
Q 45.3125 48.734375 45.3125 54.390625 
Q 45.3125 60.0625 41.71875 63.234375 
Q 38.140625 66.40625 31.78125 66.40625 
Q 25.390625 66.40625 21.84375 63.234375 
Q 18.3125 60.0625 18.3125 54.390625 
z
" id="DejaVuSans-56"/>
      </defs>
      <g style="fill:#262626;" transform="translate(108.9125 188.100586)scale(0.1 -0.1)">
       <use xlink:href="#DejaVuSans-56"/>
       <use x="63.623047" xlink:href="#DejaVuSans-48"/>
       <use x="127.246094" xlink:href="#DejaVuSans-48"/>
      </g>
     </g>
    </g>
    <g id="ytick_6">
     <g id="line2d_12">
      <path clip-path="url(#pf5c74c28f0)" d="M 135 124.450799 
L 972 124.450799 
" style="fill:none;stroke:#cccccc;stroke-linecap:round;stroke-width:0.8;"/>
     </g>
     <g id="text_13">
      <!-- 1000 -->
      <g style="fill:#262626;" transform="translate(102.55 128.250018)scale(0.1 -0.1)">
       <use xlink:href="#DejaVuSans-49"/>
       <use x="63.623047" xlink:href="#DejaVuSans-48"/>
       <use x="127.246094" xlink:href="#DejaVuSans-48"/>
       <use x="190.869141" xlink:href="#DejaVuSans-48"/>
      </g>
     </g>
    </g>
    <g id="ytick_7">
     <g id="line2d_13">
      <path clip-path="url(#pf5c74c28f0)" d="M 135 64.600232 
L 972 64.600232 
" style="fill:none;stroke:#cccccc;stroke-linecap:round;stroke-width:0.8;"/>
     </g>
     <g id="text_14">
      <!-- 1200 -->
      <g style="fill:#262626;" transform="translate(102.55 68.399451)scale(0.1 -0.1)">
       <use xlink:href="#DejaVuSans-49"/>
       <use x="63.623047" xlink:href="#DejaVuSans-50"/>
       <use x="127.246094" xlink:href="#DejaVuSans-48"/>
       <use x="190.869141" xlink:href="#DejaVuSans-48"/>
      </g>
     </g>
    </g>
    <g id="text_15">
     <!-- Regret cumulé -->
     <defs>
      <path d="M 44.390625 34.1875 
Q 47.5625 33.109375 50.5625 29.59375 
Q 53.5625 26.078125 56.59375 19.921875 
L 66.609375 0 
L 56 0 
L 46.6875 18.703125 
Q 43.0625 26.03125 39.671875 28.421875 
Q 36.28125 30.8125 30.421875 30.8125 
L 19.671875 30.8125 
L 19.671875 0 
L 9.8125 0 
L 9.8125 72.90625 
L 32.078125 72.90625 
Q 44.578125 72.90625 50.734375 67.671875 
Q 56.890625 62.453125 56.890625 51.90625 
Q 56.890625 45.015625 53.6875 40.46875 
Q 50.484375 35.9375 44.390625 34.1875 
z
M 19.671875 64.796875 
L 19.671875 38.921875 
L 32.078125 38.921875 
Q 39.203125 38.921875 42.84375 42.21875 
Q 46.484375 45.515625 46.484375 51.90625 
Q 46.484375 58.296875 42.84375 61.546875 
Q 39.203125 64.796875 32.078125 64.796875 
z
" id="DejaVuSans-82"/>
      <path d="M 56.203125 29.59375 
L 56.203125 25.203125 
L 14.890625 25.203125 
Q 15.484375 15.921875 20.484375 11.0625 
Q 25.484375 6.203125 34.421875 6.203125 
Q 39.59375 6.203125 44.453125 7.46875 
Q 49.3125 8.734375 54.109375 11.28125 
L 54.109375 2.78125 
Q 49.265625 0.734375 44.1875 -0.34375 
Q 39.109375 -1.421875 33.890625 -1.421875 
Q 20.796875 -1.421875 13.15625 6.1875 
Q 5.515625 13.8125 5.515625 26.8125 
Q 5.515625 40.234375 12.765625 48.109375 
Q 20.015625 56 32.328125 56 
Q 43.359375 56 49.78125 48.890625 
Q 56.203125 41.796875 56.203125 29.59375 
z
M 47.21875 32.234375 
Q 47.125 39.59375 43.09375 43.984375 
Q 39.0625 48.390625 32.421875 48.390625 
Q 24.90625 48.390625 20.390625 44.140625 
Q 15.875 39.890625 15.1875 32.171875 
z
" id="DejaVuSans-101"/>
      <path d="M 45.40625 27.984375 
Q 45.40625 37.75 41.375 43.109375 
Q 37.359375 48.484375 30.078125 48.484375 
Q 22.859375 48.484375 18.828125 43.109375 
Q 14.796875 37.75 14.796875 27.984375 
Q 14.796875 18.265625 18.828125 12.890625 
Q 22.859375 7.515625 30.078125 7.515625 
Q 37.359375 7.515625 41.375 12.890625 
Q 45.40625 18.265625 45.40625 27.984375 
z
M 54.390625 6.78125 
Q 54.390625 -7.171875 48.1875 -13.984375 
Q 42 -20.796875 29.203125 -20.796875 
Q 24.46875 -20.796875 20.265625 -20.09375 
Q 16.0625 -19.390625 12.109375 -17.921875 
L 12.109375 -9.1875 
Q 16.0625 -11.328125 19.921875 -12.34375 
Q 23.78125 -13.375 27.78125 -13.375 
Q 36.625 -13.375 41.015625 -8.765625 
Q 45.40625 -4.15625 45.40625 5.171875 
L 45.40625 9.625 
Q 42.625 4.78125 38.28125 2.390625 
Q 33.9375 0 27.875 0 
Q 17.828125 0 11.671875 7.65625 
Q 5.515625 15.328125 5.515625 27.984375 
Q 5.515625 40.671875 11.671875 48.328125 
Q 17.828125 56 27.875 56 
Q 33.9375 56 38.28125 53.609375 
Q 42.625 51.21875 45.40625 46.390625 
L 45.40625 54.6875 
L 54.390625 54.6875 
z
" id="DejaVuSans-103"/>
      <path id="DejaVuSans-32"/>
      <path d="M 48.78125 52.59375 
L 48.78125 44.1875 
Q 44.96875 46.296875 41.140625 47.34375 
Q 37.3125 48.390625 33.40625 48.390625 
Q 24.65625 48.390625 19.8125 42.84375 
Q 14.984375 37.3125 14.984375 27.296875 
Q 14.984375 17.28125 19.8125 11.734375 
Q 24.65625 6.203125 33.40625 6.203125 
Q 37.3125 6.203125 41.140625 7.25 
Q 44.96875 8.296875 48.78125 10.40625 
L 48.78125 2.09375 
Q 45.015625 0.34375 40.984375 -0.53125 
Q 36.96875 -1.421875 32.421875 -1.421875 
Q 20.0625 -1.421875 12.78125 6.34375 
Q 5.515625 14.109375 5.515625 27.296875 
Q 5.515625 40.671875 12.859375 48.328125 
Q 20.21875 56 33.015625 56 
Q 37.15625 56 41.109375 55.140625 
Q 45.0625 54.296875 48.78125 52.59375 
z
" id="DejaVuSans-99"/>
      <path d="M 8.5 21.578125 
L 8.5 54.6875 
L 17.484375 54.6875 
L 17.484375 21.921875 
Q 17.484375 14.15625 20.5 10.265625 
Q 23.53125 6.390625 29.59375 6.390625 
Q 36.859375 6.390625 41.078125 11.03125 
Q 45.3125 15.671875 45.3125 23.6875 
L 45.3125 54.6875 
L 54.296875 54.6875 
L 54.296875 0 
L 45.3125 0 
L 45.3125 8.40625 
Q 42.046875 3.421875 37.71875 1 
Q 33.40625 -1.421875 27.6875 -1.421875 
Q 18.265625 -1.421875 13.375 4.4375 
Q 8.5 10.296875 8.5 21.578125 
z
M 31.109375 56 
z
" id="DejaVuSans-117"/>
      <path d="M 52 44.1875 
Q 55.375 50.25 60.0625 53.125 
Q 64.75 56 71.09375 56 
Q 79.640625 56 84.28125 50.015625 
Q 88.921875 44.046875 88.921875 33.015625 
L 88.921875 0 
L 79.890625 0 
L 79.890625 32.71875 
Q 79.890625 40.578125 77.09375 44.375 
Q 74.3125 48.1875 68.609375 48.1875 
Q 61.625 48.1875 57.5625 43.546875 
Q 53.515625 38.921875 53.515625 30.90625 
L 53.515625 0 
L 44.484375 0 
L 44.484375 32.71875 
Q 44.484375 40.625 41.703125 44.40625 
Q 38.921875 48.1875 33.109375 48.1875 
Q 26.21875 48.1875 22.15625 43.53125 
Q 18.109375 38.875 18.109375 30.90625 
L 18.109375 0 
L 9.078125 0 
L 9.078125 54.6875 
L 18.109375 54.6875 
L 18.109375 46.1875 
Q 21.1875 51.21875 25.484375 53.609375 
Q 29.78125 56 35.6875 56 
Q 41.65625 56 45.828125 52.96875 
Q 50 49.953125 52 44.1875 
z
" id="DejaVuSans-109"/>
      <path d="M 9.421875 75.984375 
L 18.40625 75.984375 
L 18.40625 0 
L 9.421875 0 
z
" id="DejaVuSans-108"/>
     </defs>
     <g style="fill:#262626;" transform="translate(95.638437 302.293906)rotate(-90)scale(0.14 -0.14)">
      <use xlink:href="#DejaVuSans-82"/>
      <use x="69.419922" xlink:href="#DejaVuSans-101"/>
      <use x="130.943359" xlink:href="#DejaVuSans-103"/>
      <use x="194.419922" xlink:href="#DejaVuSans-114"/>
      <use x="235.501953" xlink:href="#DejaVuSans-101"/>
      <use x="297.025391" xlink:href="#DejaVuSans-116"/>
      <use x="336.234375" xlink:href="#DejaVuSans-32"/>
      <use x="368.021484" xlink:href="#DejaVuSans-99"/>
      <use x="423.001953" xlink:href="#DejaVuSans-117"/>
      <use x="486.380859" xlink:href="#DejaVuSans-109"/>
      <use x="583.792969" xlink:href="#DejaVuSans-117"/>
      <use x="647.171875" xlink:href="#DejaVuSans-108"/>
      <use x="674.955078" xlink:href="#DejaVuSans-233"/>
     </g>
    </g>
   </g>
   <g id="line2d_14">
    <path clip-path="url(#pf5c74c28f0)" d="M 173.045455 423.633401 
L 175.937487 422.504797 
L 176.850761 422.061524 
L 177.155186 421.891195 
L 177.611822 421.77222 
L 178.220671 421.499715 
L 178.372884 421.499715 
L 178.82952 421.17489 
L 179.133945 421.102525 
L 179.438369 421.002659 
L 182.939251 419.282799 
L 183.243676 419.182189 
L 183.700313 418.97518 
L 187.810044 416.879763 
L 188.571105 416.679606 
L 189.027742 416.471188 
L 190.397652 416.124129 
L 191.463138 415.661357 
L 192.071987 415.366302 
L 192.376412 415.259824 
L 192.833048 415.017044 
L 193.289685 414.907764 
L 194.355171 414.38967 
L 194.659596 414.273396 
L 199.6826 411.990601 
L 200.291449 411.72207 
L 200.748086 411.525698 
L 201.204723 411.242533 
L 206.37994 408.904936 
L 206.988789 408.614509 
L 207.445425 408.473415 
L 207.902062 408.182022 
L 208.510911 407.887261 
L 208.967548 407.67384 
L 209.424185 407.458037 
L 210.337458 407.000838 
L 210.946307 406.642296 
L 212.46843 406.082458 
L 212.772855 406.014542 
L 214.599402 404.820139 
L 216.425949 403.891138 
L 217.339222 403.566573 
L 217.643647 403.458567 
L 218.252496 403.224497 
L 220.383468 401.8097 
L 220.687892 401.706405 
L 221.144529 401.496909 
L 221.448953 401.483713 
L 221.753378 401.382548 
L 222.057802 401.312766 
L 227.080807 398.703555 
L 227.385232 398.622783 
L 227.994081 398.340072 
L 228.298505 398.232252 
L 230.429477 397.221028 
L 230.733901 397.066034 
L 232.408236 396.23893 
L 234.69142 395.277921 
L 235.148057 395.175199 
L 239.41 393.094768 
L 239.714425 392.836201 
L 240.323274 392.667977 
L 240.627698 392.531989 
L 241.084335 392.336926 
L 241.693184 391.998289 
L 241.997609 391.850732 
L 245.041854 390.307739 
L 245.346278 390.19671 
L 246.10734 389.905219 
L 246.411764 389.7546 
L 246.868401 389.668755 
L 247.325038 389.462437 
L 248.84716 388.873385 
L 250.673707 387.665425 
L 250.978132 387.584525 
L 253.870165 386.183841 
L 254.479014 385.823504 
L 256.762198 384.629127 
L 257.371047 384.581713 
L 258.132108 384.125701 
L 259.502019 383.438002 
L 264.677235 380.725575 
L 265.590509 380.251795 
L 266.047146 380.025422 
L 267.112632 379.545894 
L 268.786966 378.858923 
L 269.243603 378.747945 
L 269.70024 378.422815 
L 269.852452 378.422815 
L 270.461301 378.027881 
L 270.917938 377.925399 
L 271.222363 377.830052 
L 271.678999 377.729838 
L 271.983424 377.602521 
L 272.744485 377.267296 
L 273.201122 377.138213 
L 284.769254 372.200827 
L 286.443589 371.324385 
L 286.748013 371.175472 
L 287.509075 370.717805 
L 287.965711 370.638377 
L 289.944471 369.712691 
L 290.096683 369.712691 
L 290.55332 369.475259 
L 291.314381 369.197376 
L 291.618806 368.988528 
L 292.532079 368.679811 
L 293.597565 368.073664 
L 294.054202 367.950544 
L 294.358626 367.874446 
L 294.815263 367.632798 
L 295.119688 367.56186 
L 296.032961 367.235858 
L 296.489598 367.103985 
L 298.316145 366.336542 
L 298.772782 366.086106 
L 299.686055 365.739923 
L 301.208178 364.886749 
L 301.664815 364.788762 
L 302.425876 364.289738 
L 302.730301 364.233794 
L 307.448881 362.295556 
L 307.905517 362.105761 
L 308.209942 361.991564 
L 308.971003 361.461638 
L 310.949763 360.582459 
L 311.101975 360.568825 
L 311.558612 360.284285 
L 312.471885 359.856616 
L 312.928522 359.537175 
L 313.385159 359.429742 
L 313.841796 359.143956 
L 314.450645 359.068969 
L 316.733829 358.10236 
L 317.951527 357.556726 
L 318.408163 357.456144 
L 318.8648 357.194154 
L 319.169225 357.124105 
L 319.778074 356.890611 
L 320.082498 356.792869 
L 322.517894 355.366843 
L 323.278956 355.024141 
L 324.344442 354.463377 
L 324.801078 354.188287 
L 325.105503 354.026806 
L 325.714352 353.598396 
L 326.018776 353.535306 
L 328.30196 352.396902 
L 328.606385 352.34013 
L 331.041781 351.14937 
L 331.498418 350.861671 
L 331.65063 350.861671 
L 332.411691 350.380966 
L 332.716116 350.24181 
L 333.477177 349.886262 
L 334.086026 349.464834 
L 334.390451 349.362865 
L 334.847088 349.15364 
L 336.064786 348.444179 
L 336.825847 348.127903 
L 337.434696 347.888764 
L 337.739121 347.797807 
L 338.34797 347.649163 
L 338.652394 347.497281 
L 339.261243 347.109859 
L 340.783366 346.107558 
L 341.08779 346.090437 
L 341.544427 345.851389 
L 342.305488 345.646862 
L 343.523186 345.212877 
L 343.979823 344.855071 
L 344.284248 344.755111 
L 344.893097 344.60213 
L 345.197521 344.519715 
L 347.937342 343.223796 
L 348.698403 342.887091 
L 349.002828 342.739989 
L 350.068314 342.315504 
L 350.52495 342.215187 
L 351.590436 341.595638 
L 354.939106 340.274983 
L 355.85238 339.805906 
L 356.461229 339.581505 
L 356.917865 339.389681 
L 357.526714 339.377665 
L 357.983351 339.1108 
L 358.439988 338.933122 
L 359.201049 338.629735 
L 362.093082 337.35274 
L 362.854144 336.801912 
L 363.31078 336.5615 
L 363.767417 336.462741 
L 364.376266 336.23605 
L 365.137327 335.93198 
L 365.746177 335.61239 
L 367.724936 334.382201 
L 368.02936 334.267148 
L 368.638209 333.899599 
L 369.551483 333.511096 
L 370.312544 333.314311 
L 370.769181 333.049742 
L 371.073606 332.981302 
L 371.834667 332.550556 
L 372.291304 332.263632 
L 373.204577 331.956354 
L 373.661214 331.698351 
L 373.965639 331.472323 
L 374.270063 331.397842 
L 374.7267 331.138604 
L 375.031124 331.059073 
L 375.639973 330.808508 
L 375.944398 330.733032 
L 376.401035 330.534967 
L 379.44528 329.210962 
L 379.749704 329.100365 
L 380.662978 328.710482 
L 380.967403 328.594839 
L 382.337313 327.866365 
L 382.641737 327.730783 
L 383.402799 327.297881 
L 383.555011 327.297881 
L 383.859436 327.151749 
L 385.077134 326.425698 
L 385.53377 326.181592 
L 385.990407 326.083714 
L 386.447044 325.829293 
L 386.751468 325.753195 
L 390.25235 324.391441 
L 390.556775 324.367782 
L 390.8612 324.239932 
L 391.317836 323.99917 
L 392.23111 323.388039 
L 392.839959 323.091259 
L 393.448808 322.848565 
L 394.362082 322.62959 
L 398.167388 320.863557 
L 399.080662 320.309207 
L 402.277119 318.927519 
L 406.843487 317.11531 
L 407.147911 317.04785 
L 408.365609 316.414412 
L 409.126671 316.093986 
L 409.583308 315.886683 
L 410.039944 315.803751 
L 410.953218 315.435767 
L 411.409855 315.197733 
L 413.388614 313.99347 
L 413.693039 313.896955 
L 414.910737 313.457461 
L 417.650557 312.266914 
L 417.954982 312.175479 
L 418.868255 311.68136 
L 419.17268 311.521872 
L 421.608076 310.219545 
L 422.369137 309.950258 
L 422.825774 309.877731 
L 423.434623 309.551033 
L 424.043472 309.204987 
L 424.652321 308.872486 
L 424.956746 308.792429 
L 426.022232 308.124868 
L 429.827538 306.627401 
L 431.806298 305.483811 
L 434.546118 304.170427 
L 434.850543 304.092555 
L 436.372665 303.294831 
L 437.133727 303.011405 
L 437.742576 302.701316 
L 438.047 302.613886 
L 438.503637 302.304383 
L 438.960274 302.088526 
L 440.634609 301.123584 
L 441.091246 301.038504 
L 445.505401 299.330409 
L 446.11425 298.982803 
L 447.179736 298.297777 
L 448.09301 297.758949 
L 448.701859 297.649202 
L 449.006283 297.569717 
L 450.071769 296.920387 
L 450.223981 296.920387 
L 450.985042 296.405023 
L 451.898316 295.971806 
L 452.659377 295.499354 
L 457.225745 293.253092 
L 457.682382 292.957216 
L 463.314236 290.317496 
L 463.61866 290.252938 
L 464.379721 289.805733 
L 464.684146 289.532479 
L 465.140783 289.458227 
L 466.054056 288.95255 
L 469.554938 287.057672 
L 469.859363 286.948489 
L 470.620424 286.665428 
L 472.751396 285.907996 
L 473.05582 285.815378 
L 473.512457 285.560611 
L 473.816882 285.451683 
L 474.121306 285.349309 
L 478.992098 283.231271 
L 479.144311 283.231271 
L 479.448735 283.033836 
L 479.75316 282.983981 
L 480.057584 282.830329 
L 480.362009 282.768369 
L 481.12307 282.440375 
L 481.579707 282.34685 
L 482.797405 281.656006 
L 483.862891 281.058665 
L 484.167315 280.972524 
L 485.232801 280.478685 
L 485.689438 280.44809 
L 486.450499 279.999025 
L 487.515985 279.496049 
L 487.82041 279.421463 
L 489.038108 278.855858 
L 490.56023 278.429254 
L 491.473504 277.913372 
L 491.930141 277.772889 
L 493.9089 276.713152 
L 494.213324 276.692476 
L 494.669961 276.444163 
L 495.887659 275.906868 
L 497.714206 275.104384 
L 498.779692 274.696749 
L 499.236329 274.417078 
L 499.540754 274.27179 
L 500.149603 273.919429 
L 501.062876 273.448801 
L 501.519513 273.231809 
L 502.584999 272.854123 
L 502.889423 272.78375 
L 503.34606 272.479578 
L 503.650485 272.421919 
L 504.411546 272.073267 
L 504.868183 272.008286 
L 507.760216 270.478543 
L 509.282338 269.839698 
L 509.891187 269.761484 
L 510.500036 269.503213 
L 510.804461 269.394814 
L 513.848706 268.289685 
L 514.609767 267.936666 
L 517.349588 266.652655 
L 517.806225 266.413619 
L 518.567286 266.042244 
L 519.176135 265.626177 
L 520.698258 264.9376 
L 521.154895 264.86387 
L 522.981442 264.118102 
L 523.285866 264.016117 
L 523.894715 263.69072 
L 524.19914 263.673844 
L 525.112413 263.138745 
L 526.025687 262.845995 
L 526.786748 262.400338 
L 527.243385 262.212225 
L 527.700022 262.068332 
L 529.526569 261.172898 
L 529.830993 261.086312 
L 530.744267 260.690599 
L 531.048692 260.589728 
L 534.397361 258.839287 
L 534.701786 258.748564 
L 542.312399 255.200121 
L 542.616823 255.195376 
L 542.921248 254.985874 
L 544.900007 254.144209 
L 545.356644 253.959321 
L 545.813281 253.645108 
L 546.117705 253.559093 
L 548.400889 252.368223 
L 548.705314 252.29454 
L 549.314163 252.035438 
L 549.923012 251.809289 
L 551.14071 251.123384 
L 551.445134 250.996398 
L 552.206196 250.742902 
L 552.358408 250.721163 
L 553.119469 250.182288 
L 553.880531 249.771415 
L 554.946016 249.276234 
L 556.315927 248.628392 
L 556.620351 248.577049 
L 557.076988 248.374403 
L 557.381413 248.291751 
L 559.20796 247.48704 
L 559.512384 247.43579 
L 559.969021 247.189416 
L 561.186719 246.635625 
L 561.491144 246.419806 
L 561.795568 246.282898 
L 563.165479 245.449045 
L 563.622115 245.30426 
L 564.230964 244.937168 
L 565.144238 244.581959 
L 565.600875 244.385981 
L 566.057512 244.050229 
L 566.361936 244.015483 
L 566.666361 243.830833 
L 567.427422 243.576336 
L 568.036271 243.346016 
L 569.862818 242.509332 
L 570.319455 242.30396 
L 570.776092 242.007861 
L 571.080516 241.877656 
L 572.298214 241.18234 
L 572.602639 241.18234 
L 573.059275 240.933771 
L 573.515912 240.832276 
L 574.73361 240.434276 
L 575.038035 240.348052 
L 576.407945 239.631878 
L 576.71237 239.552616 
L 577.321219 239.217876 
L 579.45219 238.119397 
L 579.756615 237.997986 
L 580.061039 237.828728 
L 580.822101 237.669209 
L 581.43095 237.273109 
L 583.257497 236.499258 
L 584.170771 236.126791 
L 584.931832 235.653493 
L 585.540681 235.322682 
L 586.301742 234.924139 
L 588.584926 234.143053 
L 589.041563 233.927833 
L 591.476959 233.062292 
L 591.933596 232.986316 
L 594.064567 231.885113 
L 594.521204 231.775896 
L 596.652176 230.812871 
L 598.174298 230.213769 
L 602.740666 227.7057 
L 604.719426 226.743809 
L 605.632699 226.298174 
L 606.241548 226.097625 
L 607.154822 225.73989 
L 607.611459 225.476168 
L 607.915883 225.329675 
L 608.829157 224.928917 
L 609.438006 224.708674 
L 610.046855 224.464706 
L 610.351279 224.411801 
L 614.46101 222.080827 
L 614.765435 221.943716 
L 615.069859 221.71288 
L 615.222072 221.71288 
L 615.526496 221.508731 
L 615.830921 221.438955 
L 616.287558 221.244327 
L 616.591982 221.17257 
L 617.200831 220.859751 
L 619.331803 219.723708 
L 619.636227 219.634709 
L 619.940652 219.495662 
L 621.614987 218.681351 
L 622.071623 218.413148 
L 622.223836 218.413148 
L 622.984897 217.952769 
L 623.441534 217.758185 
L 623.898171 217.601904 
L 624.659232 217.133852 
L 625.420293 216.758052 
L 626.029142 216.485122 
L 626.333567 216.390813 
L 626.637991 216.280566 
L 627.399053 215.882247 
L 628.616751 215.294328 
L 628.921175 215.275834 
L 629.2256 215.105004 
L 629.834449 214.992538 
L 630.443298 214.786273 
L 631.052147 214.514016 
L 632.574269 213.863181 
L 632.878694 213.822342 
L 633.335331 213.580977 
L 633.791967 213.493842 
L 635.009666 212.877321 
L 635.31409 212.788744 
L 635.922939 212.466301 
L 636.227364 212.407287 
L 637.292849 211.83248 
L 638.053911 211.554912 
L 638.358335 211.495045 
L 639.271609 211.095046 
L 639.576033 211.013145 
L 640.337095 210.617121 
L 641.098156 210.283485 
L 642.315854 209.609952 
L 642.620279 209.563457 
L 643.38134 209.24819 
L 643.837977 209.113629 
L 644.903463 208.633544 
L 645.512312 208.258955 
L 645.816736 208.157063 
L 646.273373 207.979688 
L 646.577797 207.791286 
L 654.797259 203.527432 
L 655.101684 203.368294 
L 655.558321 203.158087 
L 656.014958 203.073705 
L 659.51584 201.851085 
L 659.820264 201.772002 
L 666.060967 198.757673 
L 666.365391 198.658429 
L 666.822028 198.402079 
L 667.887514 197.863874 
L 668.648575 197.472979 
L 669.714061 197.030138 
L 670.170698 196.768021 
L 670.627335 196.663976 
L 671.083971 196.611641 
L 671.845033 196.252668 
L 672.149457 196.146575 
L 672.606094 195.869262 
L 672.910518 195.774094 
L 673.67158 195.373383 
L 675.650339 194.398769 
L 675.954764 194.260292 
L 676.715825 193.745508 
L 677.02025 193.709597 
L 677.629099 193.274454 
L 678.542372 192.980363 
L 679.303433 192.642607 
L 680.064495 192.5783 
L 680.825556 192.209239 
L 681.129981 192.112723 
L 682.043254 191.59183 
L 682.499891 191.459708 
L 683.717589 190.865057 
L 684.935287 190.455375 
L 686.000773 189.75178 
L 686.609622 189.44019 
L 687.370683 189.091773 
L 687.675108 189.00689 
L 687.979532 188.929563 
L 688.740594 188.580159 
L 689.958292 188.10383 
L 690.414928 187.93649 
L 691.17599 187.522415 
L 691.480414 187.450777 
L 694.068023 186.217539 
L 694.372447 186.139828 
L 694.981296 185.750511 
L 697.112268 184.768653 
L 697.721117 184.66056 
L 699.091027 183.948079 
L 699.852089 183.729422 
L 704.266244 181.49063 
L 705.027305 181.117081 
L 705.636155 180.760387 
L 706.245004 180.572791 
L 709.593673 179.210713 
L 710.354735 179.101074 
L 710.811371 178.911867 
L 711.876857 178.454483 
L 713.39898 177.749371 
L 713.855617 177.424417 
L 715.073315 176.76206 
L 715.377739 176.567525 
L 716.1388 176.220196 
L 716.595437 175.887229 
L 718.726409 175.086068 
L 719.639682 174.579035 
L 720.400744 174.300556 
L 720.705168 174.221935 
L 721.46623 173.791359 
L 723.749414 172.962448 
L 724.358263 172.608026 
L 724.967112 172.48933 
L 725.423748 172.410795 
L 726.489234 171.808694 
L 726.793659 171.737772 
L 728.315781 171.37212 
L 729.076843 171.194766 
L 730.142328 170.528991 
L 730.598965 170.385656 
L 732.882149 169.173621 
L 733.186574 169.1169 
L 734.099847 168.738843 
L 734.860909 168.495412 
L 735.165333 168.39501 
L 735.926394 168.159146 
L 736.383031 167.925553 
L 736.839668 167.65916 
L 737.296305 167.417373 
L 737.752941 167.220308 
L 738.514003 166.801508 
L 738.97064 166.60471 
L 739.579489 166.285835 
L 739.883913 166.170106 
L 741.253823 165.630495 
L 741.71046 165.537767 
L 742.167097 165.337529 
L 745.820191 163.490945 
L 746.124616 163.293985 
L 746.42904 163.227524 
L 751.299833 160.890069 
L 752.213106 160.710068 
L 752.974168 160.330966 
L 753.278592 160.252757 
L 754.191866 159.886231 
L 754.648502 159.647595 
L 755.257351 159.440459 
L 755.713988 159.268431 
L 756.322837 158.901375 
L 756.627262 158.75455 
L 756.931686 158.681256 
L 758.149384 158.080715 
L 758.606021 157.976252 
L 758.910446 157.849666 
L 760.280356 157.558227 
L 761.041417 157.222584 
L 762.411328 156.504808 
L 763.020177 156.136854 
L 764.998936 155.125048 
L 765.151148 155.125048 
L 766.064422 154.512514 
L 766.368846 154.445304 
L 767.434332 154.018099 
L 769.565304 153.038301 
L 770.935214 152.477832 
L 771.848488 151.907581 
L 772.609549 151.70124 
L 773.37061 151.357227 
L 773.827247 151.290117 
L 775.34937 150.302102 
L 775.653794 150.266708 
L 776.414856 149.89465 
L 776.871492 149.786687 
L 777.632554 149.615255 
L 778.089191 149.342925 
L 778.545827 149.163378 
L 784.634318 146.391153 
L 785.243167 145.98662 
L 785.547591 145.911884 
L 789.809535 144.130061 
L 790.87502 143.454752 
L 791.179445 143.382646 
L 791.788294 143.015994 
L 792.397143 142.859309 
L 793.462629 142.195458 
L 799.551119 139.698947 
L 799.855544 139.528196 
L 800.159968 139.467335 
L 801.986515 138.700709 
L 802.747577 138.360952 
L 805.791822 136.712872 
L 806.248459 136.635127 
L 807.00952 136.292823 
L 807.313945 136.208034 
L 808.227218 135.705359 
L 808.531643 135.616974 
L 808.836067 135.415785 
L 809.597129 135.081535 
L 810.053765 134.988347 
L 812.945798 133.350827 
L 814.011284 132.823813 
L 814.924558 132.33978 
L 815.228982 132.271407 
L 816.598893 131.433536 
L 817.664378 130.892911 
L 819.186501 130.32555 
L 819.79535 129.971564 
L 820.404199 129.546488 
L 820.708624 129.401629 
L 821.317473 129.317823 
L 821.621897 129.196607 
L 822.230746 128.987201 
L 822.687383 128.876907 
L 823.448444 128.791513 
L 823.752869 128.666127 
L 825.579416 127.808241 
L 825.88384 127.721619 
L 826.492689 127.367866 
L 826.797114 127.24062 
L 827.101538 127.24062 
L 827.710388 126.866162 
L 831.667906 124.808648 
L 832.124543 124.75242 
L 834.103302 123.72805 
L 834.407727 123.621499 
L 835.92985 122.918081 
L 836.843123 122.817975 
L 837.29976 122.691685 
L 838.060821 122.561647 
L 838.517458 122.343316 
L 838.821883 122.343316 
L 839.735156 121.781229 
L 840.344005 121.466877 
L 840.64843 121.255997 
L 840.952854 121.208551 
L 841.866128 120.545908 
L 842.779401 120.209404 
L 842.931614 120.209404 
L 843.540463 119.856441 
L 843.844887 119.774376 
L 844.301524 119.520264 
L 844.605948 119.379761 
L 845.36701 118.956913 
L 845.975859 118.657386 
L 846.432496 118.568605 
L 847.345769 118.047601 
L 848.411255 117.642326 
L 848.867892 117.401062 
L 849.172316 117.297602 
L 849.781165 117.004883 
L 850.237802 116.899804 
L 850.998863 116.48742 
L 851.607712 116.145453 
L 852.064349 116.010673 
L 853.738684 114.997847 
L 854.347533 114.91449 
L 855.869656 114.291105 
L 856.17408 114.19172 
L 856.935142 113.786237 
L 857.696203 113.341625 
L 857.848415 113.341625 
L 858.609476 112.87295 
L 859.370538 112.550062 
L 859.827175 112.373048 
L 860.588236 111.906997 
L 860.89266 111.906997 
L 861.349297 111.611957 
L 861.805934 111.494683 
L 862.719207 111.110426 
L 863.023632 111.039696 
L 863.784693 110.540895 
L 864.24133 110.343768 
L 870.482033 107.929921 
L 870.93867 107.832179 
L 873.67849 106.410859 
L 874.135127 106.315732 
L 874.743976 106.009164 
L 874.896188 106.009164 
L 875.65725 105.566605 
L 876.418311 105.256286 
L 877.02716 105.115601 
L 878.244858 104.335277 
L 878.701495 104.182851 
L 879.919193 103.449424 
L 880.37583 103.328327 
L 881.897952 102.440048 
L 883.724499 101.514678 
L 884.181136 101.452899 
L 884.942198 100.987653 
L 885.398834 100.891981 
L 888.138655 99.366727 
L 888.44308 99.27031 
L 889.356353 98.801069 
L 889.965202 98.642822 
L 890.878476 98.249446 
L 891.1829 98.15815 
L 891.639537 97.902411 
L 892.248386 97.653481 
L 892.857235 97.439039 
L 893.466084 97.236295 
L 893.770509 97.089866 
L 895.444844 96.010233 
L 895.749268 95.903469 
L 896.510329 95.459367 
L 897.423603 95.121048 
L 897.728027 94.998169 
L 898.793513 94.614438 
L 899.554575 94.286149 
L 899.858999 94.116699 
L 900.163424 94.10483 
L 900.772273 93.791398 
L 901.076697 93.722464 
L 901.837758 93.378085 
L 902.142183 93.340779 
L 902.446608 93.139265 
L 903.512093 92.499213 
L 903.96873 92.328037 
L 904.273155 92.225832 
L 904.882004 91.832641 
L 905.186428 91.745015 
L 905.947489 91.238047 
L 906.556339 90.871447 
L 909.143947 89.583967 
L 909.448371 89.502793 
L 910.057221 89.132111 
L 910.66607 88.832628 
L 913.101466 87.441727 
L 913.40589 87.379956 
L 914.623588 86.62556 
L 914.928013 86.509598 
L 915.993499 85.887873 
L 916.75456 85.646958 
L 917.058985 85.444121 
L 917.363409 85.404257 
L 917.972258 85.131179 
L 919.189956 84.667794 
L 919.646593 84.583988 
L 920.10323 84.378279 
L 920.407654 84.284922 
L 921.777565 83.657064 
L 922.081989 83.465421 
L 922.690838 83.392445 
L 923.604112 82.948388 
L 923.908536 82.727314 
L 924.212961 82.626854 
L 925.582871 81.865058 
L 926.039508 81.713699 
L 926.800569 81.318643 
L 928.17048 80.826357 
L 928.931541 80.369279 
L 931.366937 79.345072 
L 931.975786 79.035804 
L 932.432423 78.828293 
L 933.193484 78.27989 
L 933.954545 77.776364 
L 933.954545 77.776364 
" style="fill:none;stroke:#1f77b4;stroke-linecap:round;stroke-width:1.5;"/>
   </g>
   <g id="line2d_15">
    <path clip-path="url(#pf5c74c28f0)" d="M 173.045455 423.664045 
L 173.349879 423.544633 
L 175.328638 423.367551 
L 175.785275 423.304806 
L 176.546337 423.243221 
L 176.850761 423.179706 
L 177.916247 423.082042 
L 179.438369 423.04081 
L 181.264917 422.939475 
L 197.551629 421.778473 
L 200.443661 421.73617 
L 200.748086 421.647778 
L 202.270209 421.554658 
L 202.879058 421.504581 
L 213.533916 420.919735 
L 214.142765 420.861611 
L 214.447189 420.800533 
L 215.360463 420.698899 
L 216.273737 420.564161 
L 219.013557 420.461663 
L 219.470194 420.421525 
L 220.687892 420.337246 
L 221.144529 420.287608 
L 222.514439 420.151601 
L 223.427713 420.042297 
L 224.949835 419.935263 
L 228.298505 419.743412 
L 231.647175 419.630847 
L 233.169297 419.542391 
L 233.778147 419.43161 
L 235.452481 419.260679 
L 236.06133 419.171863 
L 237.126816 419.112035 
L 238.953363 419.01093 
L 239.41 418.909934 
L 240.932123 418.809667 
L 241.38876 418.758652 
L 242.454245 418.690366 
L 242.75867 418.617058 
L 244.280793 418.489699 
L 255.240075 417.581326 
L 255.5445 417.480049 
L 257.979896 417.399849 
L 258.436533 417.298983 
L 260.719717 417.190198 
L 262.546264 417.054661 
L 263.459537 416.997446 
L 263.763962 416.92815 
L 276.093155 415.924203 
L 278.071914 415.830502 
L 278.985188 415.717885 
L 280.202886 415.615938 
L 281.725009 415.509178 
L 282.942707 415.419906 
L 283.399344 415.354059 
L 285.225891 415.253212 
L 285.682527 415.124092 
L 289.640046 414.721549 
L 289.944471 414.650919 
L 291.009957 414.549948 
L 292.075442 414.41843 
L 293.140928 414.358933 
L 293.749777 414.251448 
L 295.576324 414.159893 
L 296.032961 414.093009 
L 297.859508 414.042471 
L 298.316145 413.940049 
L 299.838268 413.844555 
L 300.447117 413.781516 
L 301.969239 413.706408 
L 302.425876 413.619427 
L 303.034725 413.550173 
L 303.643574 413.429269 
L 305.774546 413.322468 
L 306.231183 413.27837 
L 307.601093 413.186592 
L 308.362154 413.084869 
L 311.710824 413.014527 
L 312.319673 412.940218 
L 314.450645 412.830114 
L 318.103739 412.506434 
L 319.625862 412.316963 
L 322.517894 412.224053 
L 322.974531 412.17634 
L 324.496654 412.096655 
L 325.409927 411.986426 
L 327.236475 411.884845 
L 329.367446 411.638792 
L 330.432932 411.549874 
L 331.041781 411.496863 
L 336.673635 410.960996 
L 337.891333 410.867727 
L 338.956819 410.756544 
L 341.240003 410.651754 
L 344.284248 410.453255 
L 344.740885 410.368118 
L 351.894861 409.590112 
L 352.199285 409.505285 
L 352.960347 409.442332 
L 353.416983 409.369435 
L 355.243531 409.276276 
L 355.85238 409.222831 
L 358.135563 409.1313 
L 358.5922 409.061034 
L 361.788658 408.955829 
L 382.641737 407.396927 
L 383.707223 407.302407 
L 385.381558 407.211863 
L 387.51253 407.105646 
L 388.730228 407.069455 
L 390.708987 406.958578 
L 392.383322 406.83907 
L 393.905445 406.695312 
L 398.471813 406.498661 
L 399.993935 406.390502 
L 401.211633 406.253007 
L 403.951454 406.142078 
L 412.779765 405.518918 
L 414.4541 405.423218 
L 414.910737 405.354971 
L 417.498345 405.10366 
L 419.629317 405.003144 
L 422.064713 404.706404 
L 424.043472 404.531534 
L 425.565595 404.428886 
L 428.457628 404.279119 
L 430.5886 404.182991 
L 431.045236 404.13896 
L 435.916029 403.79486 
L 437.742576 403.621328 
L 438.960274 403.515886 
L 439.721335 403.464435 
L 440.482396 403.366464 
L 440.786821 403.27319 
L 442.004519 403.17076 
L 452.202741 402.380228 
L 452.659377 402.325533 
L 454.485924 402.233828 
L 455.55141 402.158778 
L 458.443443 402.050843 
L 463.923085 401.645538 
L 464.379721 401.561097 
L 466.510693 401.471653 
L 468.032816 401.231662 
L 473.512457 400.995444 
L 473.969094 400.939432 
L 475.339004 400.852848 
L 475.947853 400.823064 
L 478.078825 400.718593 
L 480.362009 400.528255 
L 483.254042 400.303647 
L 484.015103 400.178407 
L 485.080589 400.081712 
L 486.298287 399.88828 
L 487.515985 399.828354 
L 487.972622 399.755294 
L 488.429259 399.705584 
L 490.103593 399.606615 
L 491.169079 399.466095 
L 492.53899 399.392277 
L 492.995626 399.338444 
L 496.344296 399.238971 
L 497.25757 399.182621 
L 502.128362 398.814784 
L 502.584999 398.751722 
L 505.020395 398.655808 
L 506.085881 398.610117 
L 506.846942 398.537259 
L 507.455791 398.399998 
L 508.521277 398.252917 
L 511.41331 398.108607 
L 511.869947 398.049988 
L 513.239857 397.854764 
L 515.066404 397.757929 
L 516.284102 397.639551 
L 518.415074 397.428943 
L 519.023923 397.353272 
L 521.459319 397.254803 
L 522.22038 397.197095 
L 524.503564 397.11527 
L 524.960201 397.052749 
L 526.938961 396.947448 
L 532.875239 396.46512 
L 533.484088 396.32192 
L 534.092937 396.28454 
L 536.071696 396.154656 
L 538.202668 395.941493 
L 539.72479 395.841612 
L 540.485852 395.813499 
L 546.878767 395.318113 
L 549.314163 395.217951 
L 550.227436 395.121595 
L 553.271682 394.987947 
L 553.576106 394.920327 
L 554.793804 394.834039 
L 555.402653 394.798785 
L 557.685837 394.695398 
L 576.71237 393.244582 
L 577.777856 393.142715 
L 580.365464 393.056674 
L 581.278738 392.887883 
L 583.257497 392.790116 
L 584.018558 392.669599 
L 586.606167 392.56356 
L 588.889351 392.405389 
L 591.020322 392.294912 
L 593.912355 392.132387 
L 594.977841 392.051783 
L 595.891115 391.925858 
L 596.652176 391.832459 
L 597.869874 391.73014 
L 599.544209 391.503924 
L 601.066331 391.39525 
L 611.112341 390.972669 
L 612.025614 390.880467 
L 616.135345 390.776683 
L 617.200831 390.685192 
L 617.961892 390.575736 
L 618.418529 390.499452 
L 619.331803 390.388432 
L 622.52826 390.223827 
L 623.289322 390.097147 
L 625.724718 389.999932 
L 626.942416 389.898141 
L 630.899935 389.727932 
L 631.813208 389.693749 
L 632.726482 389.596552 
L 633.335331 389.539528 
L 635.31409 389.434092 
L 636.075151 389.298672 
L 636.531788 389.217516 
L 637.597274 389.124919 
L 639.880458 388.864013 
L 642.468066 388.765429 
L 643.076915 388.735272 
L 647.491071 388.440968 
L 647.947708 388.370306 
L 650.230892 388.283458 
L 651.753014 388.046067 
L 654.949472 387.761128 
L 655.710533 387.606477 
L 657.993717 387.498389 
L 658.298141 387.413909 
L 665.756542 387.009575 
L 666.517604 386.924396 
L 667.278665 386.878107 
L 668.191938 386.790264 
L 668.800787 386.673556 
L 671.083971 386.59817 
L 671.540608 386.511095 
L 673.519368 386.40769 
L 674.128217 386.331101 
L 676.259188 386.245142 
L 677.629099 386.079641 
L 679.76007 385.929154 
L 680.521131 385.823567 
L 682.804315 385.713802 
L 684.174226 385.542667 
L 684.47865 385.482647 
L 685.239712 385.376966 
L 685.848561 385.320201 
L 686.914046 385.227429 
L 688.283957 385.086146 
L 689.501655 385.043901 
L 690.567141 384.976445 
L 691.17599 384.865068 
L 693.154749 384.757372 
L 695.590145 384.49254 
L 697.568905 384.386586 
L 702.591909 384.102778 
L 704.722881 383.959739 
L 706.245004 383.849514 
L 708.832612 383.606368 
L 709.441461 383.488343 
L 711.268008 383.380844 
L 711.724645 383.228224 
L 713.855617 383.186117 
L 715.834376 383.087244 
L 716.595437 382.988391 
L 717.813135 382.946086 
L 719.48747 382.842129 
L 719.944107 382.746648 
L 721.161805 382.664134 
L 721.618442 382.584029 
L 722.075079 382.515223 
L 722.531715 382.428769 
L 723.597201 382.324972 
L 724.662687 382.252507 
L 726.032597 382.146222 
L 726.641446 382.067559 
L 728.315781 381.966241 
L 729.837904 381.789953 
L 732.882149 381.512188 
L 733.490998 381.424696 
L 742.319309 380.813584 
L 744.298069 380.708562 
L 748.560012 380.404406 
L 749.77771 380.303559 
L 750.690984 380.187725 
L 751.14762 380.136595 
L 752.060894 380.053044 
L 754.191866 380.008139 
L 754.49629 379.935362 
L 756.322837 379.83698 
L 756.931686 379.755486 
L 759.519295 379.649755 
L 762.259115 379.390716 
L 764.085663 379.311744 
L 767.129908 379.203253 
L 767.586545 379.144526 
L 768.499818 379.03904 
L 769.108667 378.949236 
L 770.478578 378.860678 
L 771.087427 378.81416 
L 772.913974 378.715158 
L 776.414856 378.475905 
L 777.480342 378.383201 
L 780.372374 378.07102 
L 781.590073 377.976478 
L 782.503346 377.930734 
L 783.721044 377.823437 
L 784.329893 377.758232 
L 785.852016 377.708422 
L 786.308653 377.598896 
L 787.678563 377.569101 
L 789.961747 377.46778 
L 791.331657 377.326089 
L 794.375902 377.21837 
L 798.181209 376.936032 
L 799.551119 376.840562 
L 800.464393 376.765551 
L 802.899789 376.560092 
L 809.749341 376.349423 
L 810.510402 376.291763 
L 811.423676 376.212669 
L 811.7281 376.152398 
L 813.098011 376.051011 
L 821.317473 375.477558 
L 822.535171 375.382822 
L 823.14402 375.319361 
L 824.666142 375.212324 
L 825.427204 375.148084 
L 828.623661 375.059555 
L 829.536935 374.974489 
L 832.124543 374.883933 
L 832.58118 374.841606 
L 836.234274 374.737626 
L 836.843123 374.664528 
L 855.260807 373.323204 
L 855.869656 373.2129 
L 856.782929 373.118566 
L 857.239566 373.055667 
L 862.262571 372.584902 
L 863.784693 372.491805 
L 864.24133 372.429408 
L 865.915665 372.227801 
L 866.372302 372.173749 
L 867.894424 372.083989 
L 868.503273 371.990768 
L 870.177608 371.899597 
L 870.634245 371.842071 
L 872.30858 371.735585 
L 873.069641 371.699776 
L 873.830703 371.590803 
L 875.200613 371.456388 
L 876.266099 371.356287 
L 878.092646 371.241712 
L 879.158132 371.134674 
L 879.614768 370.999148 
L 880.528042 370.91129 
L 880.984679 370.827059 
L 881.74574 370.619475 
L 882.659014 370.525891 
L 887.83423 369.964348 
L 888.595292 369.871569 
L 889.356353 369.842711 
L 891.639537 369.731618 
L 893.009447 369.638589 
L 894.835994 369.545794 
L 895.292631 369.505147 
L 896.662542 369.399776 
L 897.575815 369.309146 
L 899.402362 369.199437 
L 900.163424 369.106542 
L 900.62006 369.030112 
L 901.533334 368.979559 
L 901.989971 368.895116 
L 902.59882 368.840188 
L 904.882004 368.747984 
L 905.947489 368.694614 
L 907.165188 368.607141 
L 907.621824 368.539135 
L 908.230673 368.440125 
L 909.905008 368.246331 
L 911.122706 368.1584 
L 912.797041 368.073471 
L 913.40589 368.04144 
L 914.166952 367.955559 
L 914.775801 367.898023 
L 915.993499 367.811899 
L 916.906772 367.678696 
L 917.515621 367.569977 
L 918.885532 367.439098 
L 919.342168 367.391643 
L 921.016503 367.120003 
L 921.929777 366.945679 
L 923.756324 366.849903 
L 924.517385 366.753389 
L 926.648357 366.647889 
L 927.104994 366.581712 
L 928.931541 366.502314 
L 929.388178 366.462783 
L 931.519149 366.399458 
L 931.975786 366.322215 
L 933.041272 366.232997 
L 933.954545 366.136905 
L 933.954545 366.136905 
" style="fill:none;stroke:#ff7f0e;stroke-linecap:round;stroke-width:1.5;"/>
   </g>
   <g id="line2d_16">
    <path clip-path="url(#pf5c74c28f0)" d="M 173.045455 423.703636 
L 933.954545 423.703636 
L 933.954545 423.703636 
" style="fill:none;stroke:#2ca02c;stroke-linecap:round;stroke-width:1.5;"/>
   </g>
   <g id="patch_3">
    <path d="M 135 441 
L 135 60.48 
" style="fill:none;stroke:#cccccc;stroke-linecap:square;stroke-linejoin:miter;stroke-width:0.8;"/>
   </g>
   <g id="patch_4">
    <path d="M 972 441 
L 972 60.48 
" style="fill:none;stroke:#cccccc;stroke-linecap:square;stroke-linejoin:miter;stroke-width:0.8;"/>
   </g>
   <g id="patch_5">
    <path d="M 135 441 
L 972 441 
" style="fill:none;stroke:#cccccc;stroke-linecap:square;stroke-linejoin:miter;stroke-width:0.8;"/>
   </g>
   <g id="patch_6">
    <path d="M 135 60.48 
L 972 60.48 
" style="fill:none;stroke:#cccccc;stroke-linecap:square;stroke-linejoin:miter;stroke-width:0.8;"/>
   </g>
   <g id="text_16">
    <!-- Regrets cumulés pour les stratégies Baseline -->
    <defs>
     <path d="M 44.28125 53.078125 
L 44.28125 44.578125 
Q 40.484375 46.53125 36.375 47.5 
Q 32.28125 48.484375 27.875 48.484375 
Q 21.1875 48.484375 17.84375 46.4375 
Q 14.5 44.390625 14.5 40.28125 
Q 14.5 37.15625 16.890625 35.375 
Q 19.28125 33.59375 26.515625 31.984375 
L 29.59375 31.296875 
Q 39.15625 29.25 43.1875 25.515625 
Q 47.21875 21.78125 47.21875 15.09375 
Q 47.21875 7.46875 41.1875 3.015625 
Q 35.15625 -1.421875 24.609375 -1.421875 
Q 20.21875 -1.421875 15.453125 -0.5625 
Q 10.6875 0.296875 5.421875 2 
L 5.421875 11.28125 
Q 10.40625 8.6875 15.234375 7.390625 
Q 20.0625 6.109375 24.8125 6.109375 
Q 31.15625 6.109375 34.5625 8.28125 
Q 37.984375 10.453125 37.984375 14.40625 
Q 37.984375 18.0625 35.515625 20.015625 
Q 33.0625 21.96875 24.703125 23.78125 
L 21.578125 24.515625 
Q 13.234375 26.265625 9.515625 29.90625 
Q 5.8125 33.546875 5.8125 39.890625 
Q 5.8125 47.609375 11.28125 51.796875 
Q 16.75 56 26.8125 56 
Q 31.78125 56 36.171875 55.265625 
Q 40.578125 54.546875 44.28125 53.078125 
z
" id="DejaVuSans-115"/>
     <path d="M 18.109375 8.203125 
L 18.109375 -20.796875 
L 9.078125 -20.796875 
L 9.078125 54.6875 
L 18.109375 54.6875 
L 18.109375 46.390625 
Q 20.953125 51.265625 25.265625 53.625 
Q 29.59375 56 35.59375 56 
Q 45.5625 56 51.78125 48.09375 
Q 58.015625 40.1875 58.015625 27.296875 
Q 58.015625 14.40625 51.78125 6.484375 
Q 45.5625 -1.421875 35.59375 -1.421875 
Q 29.59375 -1.421875 25.265625 0.953125 
Q 20.953125 3.328125 18.109375 8.203125 
z
M 48.6875 27.296875 
Q 48.6875 37.203125 44.609375 42.84375 
Q 40.53125 48.484375 33.40625 48.484375 
Q 26.265625 48.484375 22.1875 42.84375 
Q 18.109375 37.203125 18.109375 27.296875 
Q 18.109375 17.390625 22.1875 11.75 
Q 26.265625 6.109375 33.40625 6.109375 
Q 40.53125 6.109375 44.609375 11.75 
Q 48.6875 17.390625 48.6875 27.296875 
z
" id="DejaVuSans-112"/>
     <path d="M 19.671875 34.8125 
L 19.671875 8.109375 
L 35.5 8.109375 
Q 43.453125 8.109375 47.28125 11.40625 
Q 51.125 14.703125 51.125 21.484375 
Q 51.125 28.328125 47.28125 31.5625 
Q 43.453125 34.8125 35.5 34.8125 
z
M 19.671875 64.796875 
L 19.671875 42.828125 
L 34.28125 42.828125 
Q 41.5 42.828125 45.03125 45.53125 
Q 48.578125 48.25 48.578125 53.8125 
Q 48.578125 59.328125 45.03125 62.0625 
Q 41.5 64.796875 34.28125 64.796875 
z
M 9.8125 72.90625 
L 35.015625 72.90625 
Q 46.296875 72.90625 52.390625 68.21875 
Q 58.5 63.53125 58.5 54.890625 
Q 58.5 48.1875 55.375 44.234375 
Q 52.25 40.28125 46.1875 39.3125 
Q 53.46875 37.75 57.5 32.78125 
Q 61.53125 27.828125 61.53125 20.40625 
Q 61.53125 10.640625 54.890625 5.3125 
Q 48.25 0 35.984375 0 
L 9.8125 0 
z
" id="DejaVuSans-66"/>
    </defs>
    <g style="fill:#262626;" transform="translate(417.800625 54.48)scale(0.12 -0.12)">
     <use xlink:href="#DejaVuSans-82"/>
     <use x="69.419922" xlink:href="#DejaVuSans-101"/>
     <use x="130.943359" xlink:href="#DejaVuSans-103"/>
     <use x="194.419922" xlink:href="#DejaVuSans-114"/>
     <use x="235.501953" xlink:href="#DejaVuSans-101"/>
     <use x="297.025391" xlink:href="#DejaVuSans-116"/>
     <use x="336.234375" xlink:href="#DejaVuSans-115"/>
     <use x="388.333984" xlink:href="#DejaVuSans-32"/>
     <use x="420.121094" xlink:href="#DejaVuSans-99"/>
     <use x="475.101562" xlink:href="#DejaVuSans-117"/>
     <use x="538.480469" xlink:href="#DejaVuSans-109"/>
     <use x="635.892578" xlink:href="#DejaVuSans-117"/>
     <use x="699.271484" xlink:href="#DejaVuSans-108"/>
     <use x="727.054688" xlink:href="#DejaVuSans-233"/>
     <use x="788.578125" xlink:href="#DejaVuSans-115"/>
     <use x="840.677734" xlink:href="#DejaVuSans-32"/>
     <use x="872.464844" xlink:href="#DejaVuSans-112"/>
     <use x="935.941406" xlink:href="#DejaVuSans-111"/>
     <use x="997.123047" xlink:href="#DejaVuSans-117"/>
     <use x="1060.501953" xlink:href="#DejaVuSans-114"/>
     <use x="1101.615234" xlink:href="#DejaVuSans-32"/>
     <use x="1133.402344" xlink:href="#DejaVuSans-108"/>
     <use x="1161.185547" xlink:href="#DejaVuSans-101"/>
     <use x="1222.708984" xlink:href="#DejaVuSans-115"/>
     <use x="1274.808594" xlink:href="#DejaVuSans-32"/>
     <use x="1306.595703" xlink:href="#DejaVuSans-115"/>
     <use x="1358.695312" xlink:href="#DejaVuSans-116"/>
     <use x="1397.904297" xlink:href="#DejaVuSans-114"/>
     <use x="1439.017578" xlink:href="#DejaVuSans-97"/>
     <use x="1500.296875" xlink:href="#DejaVuSans-116"/>
     <use x="1539.505859" xlink:href="#DejaVuSans-233"/>
     <use x="1601.029297" xlink:href="#DejaVuSans-103"/>
     <use x="1664.505859" xlink:href="#DejaVuSans-105"/>
     <use x="1692.289062" xlink:href="#DejaVuSans-101"/>
     <use x="1753.8125" xlink:href="#DejaVuSans-115"/>
     <use x="1805.912109" xlink:href="#DejaVuSans-32"/>
     <use x="1837.699219" xlink:href="#DejaVuSans-66"/>
     <use x="1906.302734" xlink:href="#DejaVuSans-97"/>
     <use x="1967.582031" xlink:href="#DejaVuSans-115"/>
     <use x="2019.681641" xlink:href="#DejaVuSans-101"/>
     <use x="2081.205078" xlink:href="#DejaVuSans-108"/>
     <use x="2108.988281" xlink:href="#DejaVuSans-105"/>
     <use x="2136.771484" xlink:href="#DejaVuSans-110"/>
     <use x="2200.150391" xlink:href="#DejaVuSans-101"/>
    </g>
   </g>
   <g id="legend_1">
    <g id="patch_7">
     <path d="M 142 112.514375 
L 224.7375 112.514375 
Q 226.7375 112.514375 226.7375 110.514375 
L 226.7375 67.48 
Q 226.7375 65.48 224.7375 65.48 
L 142 65.48 
Q 140 65.48 140 67.48 
L 140 110.514375 
Q 140 112.514375 142 112.514375 
z
" style="fill:#ffffff;opacity:0.8;stroke:#cccccc;stroke-linejoin:miter;"/>
    </g>
    <g id="line2d_17">
     <path d="M 144 73.578438 
L 164 73.578438 
" style="fill:none;stroke:#1f77b4;stroke-linecap:round;stroke-width:1.5;"/>
    </g>
    <g id="line2d_18"/>
    <g id="text_17">
     <!-- Random -->
     <defs>
      <path d="M 45.40625 46.390625 
L 45.40625 75.984375 
L 54.390625 75.984375 
L 54.390625 0 
L 45.40625 0 
L 45.40625 8.203125 
Q 42.578125 3.328125 38.25 0.953125 
Q 33.9375 -1.421875 27.875 -1.421875 
Q 17.96875 -1.421875 11.734375 6.484375 
Q 5.515625 14.40625 5.515625 27.296875 
Q 5.515625 40.1875 11.734375 48.09375 
Q 17.96875 56 27.875 56 
Q 33.9375 56 38.25 53.625 
Q 42.578125 51.265625 45.40625 46.390625 
z
M 14.796875 27.296875 
Q 14.796875 17.390625 18.875 11.75 
Q 22.953125 6.109375 30.078125 6.109375 
Q 37.203125 6.109375 41.296875 11.75 
Q 45.40625 17.390625 45.40625 27.296875 
Q 45.40625 37.203125 41.296875 42.84375 
Q 37.203125 48.484375 30.078125 48.484375 
Q 22.953125 48.484375 18.875 42.84375 
Q 14.796875 37.203125 14.796875 27.296875 
z
" id="DejaVuSans-100"/>
     </defs>
     <g style="fill:#262626;" transform="translate(172 77.078438)scale(0.1 -0.1)">
      <use xlink:href="#DejaVuSans-82"/>
      <use x="69.451172" xlink:href="#DejaVuSans-97"/>
      <use x="130.730469" xlink:href="#DejaVuSans-110"/>
      <use x="194.109375" xlink:href="#DejaVuSans-100"/>
      <use x="257.585938" xlink:href="#DejaVuSans-111"/>
      <use x="318.767578" xlink:href="#DejaVuSans-109"/>
     </g>
    </g>
    <g id="line2d_19">
     <path d="M 144 88.256563 
L 164 88.256563 
" style="fill:none;stroke:#ff7f0e;stroke-linecap:round;stroke-width:1.5;"/>
    </g>
    <g id="line2d_20"/>
    <g id="text_18">
     <!-- StaticBest -->
     <defs>
      <path d="M 53.515625 70.515625 
L 53.515625 60.890625 
Q 47.90625 63.578125 42.921875 64.890625 
Q 37.9375 66.21875 33.296875 66.21875 
Q 25.25 66.21875 20.875 63.09375 
Q 16.5 59.96875 16.5 54.203125 
Q 16.5 49.359375 19.40625 46.890625 
Q 22.3125 44.4375 30.421875 42.921875 
L 36.375 41.703125 
Q 47.40625 39.59375 52.65625 34.296875 
Q 57.90625 29 57.90625 20.125 
Q 57.90625 9.515625 50.796875 4.046875 
Q 43.703125 -1.421875 29.984375 -1.421875 
Q 24.8125 -1.421875 18.96875 -0.25 
Q 13.140625 0.921875 6.890625 3.21875 
L 6.890625 13.375 
Q 12.890625 10.015625 18.65625 8.296875 
Q 24.421875 6.59375 29.984375 6.59375 
Q 38.421875 6.59375 43.015625 9.90625 
Q 47.609375 13.234375 47.609375 19.390625 
Q 47.609375 24.75 44.3125 27.78125 
Q 41.015625 30.8125 33.5 32.328125 
L 27.484375 33.5 
Q 16.453125 35.6875 11.515625 40.375 
Q 6.59375 45.0625 6.59375 53.421875 
Q 6.59375 63.09375 13.40625 68.65625 
Q 20.21875 74.21875 32.171875 74.21875 
Q 37.3125 74.21875 42.625 73.28125 
Q 47.953125 72.359375 53.515625 70.515625 
z
" id="DejaVuSans-83"/>
     </defs>
     <g style="fill:#262626;" transform="translate(172 91.756563)scale(0.1 -0.1)">
      <use xlink:href="#DejaVuSans-83"/>
      <use x="63.476562" xlink:href="#DejaVuSans-116"/>
      <use x="102.685547" xlink:href="#DejaVuSans-97"/>
      <use x="163.964844" xlink:href="#DejaVuSans-116"/>
      <use x="203.173828" xlink:href="#DejaVuSans-105"/>
      <use x="230.957031" xlink:href="#DejaVuSans-99"/>
      <use x="285.9375" xlink:href="#DejaVuSans-66"/>
      <use x="354.541016" xlink:href="#DejaVuSans-101"/>
      <use x="416.064453" xlink:href="#DejaVuSans-115"/>
      <use x="468.164062" xlink:href="#DejaVuSans-116"/>
     </g>
    </g>
    <g id="line2d_21">
     <path d="M 144 102.934687 
L 164 102.934687 
" style="fill:none;stroke:#2ca02c;stroke-linecap:round;stroke-width:1.5;"/>
    </g>
    <g id="line2d_22"/>
    <g id="text_19">
     <!-- Optimale -->
     <defs>
      <path d="M 39.40625 66.21875 
Q 28.65625 66.21875 22.328125 58.203125 
Q 16.015625 50.203125 16.015625 36.375 
Q 16.015625 22.609375 22.328125 14.59375 
Q 28.65625 6.59375 39.40625 6.59375 
Q 50.140625 6.59375 56.421875 14.59375 
Q 62.703125 22.609375 62.703125 36.375 
Q 62.703125 50.203125 56.421875 58.203125 
Q 50.140625 66.21875 39.40625 66.21875 
z
M 39.40625 74.21875 
Q 54.734375 74.21875 63.90625 63.9375 
Q 73.09375 53.65625 73.09375 36.375 
Q 73.09375 19.140625 63.90625 8.859375 
Q 54.734375 -1.421875 39.40625 -1.421875 
Q 24.03125 -1.421875 14.8125 8.828125 
Q 5.609375 19.09375 5.609375 36.375 
Q 5.609375 53.65625 14.8125 63.9375 
Q 24.03125 74.21875 39.40625 74.21875 
z
" id="DejaVuSans-79"/>
     </defs>
     <g style="fill:#262626;" transform="translate(172 106.434687)scale(0.1 -0.1)">
      <use xlink:href="#DejaVuSans-79"/>
      <use x="78.710938" xlink:href="#DejaVuSans-112"/>
      <use x="142.1875" xlink:href="#DejaVuSans-116"/>
      <use x="181.396484" xlink:href="#DejaVuSans-105"/>
      <use x="209.179688" xlink:href="#DejaVuSans-109"/>
      <use x="306.591797" xlink:href="#DejaVuSans-97"/>
      <use x="367.871094" xlink:href="#DejaVuSans-108"/>
      <use x="395.654297" xlink:href="#DejaVuSans-101"/>
     </g>
    </g>
   </g>
  </g>
 </g>
 <defs>
  <clipPath id="pf5c74c28f0">
   <rect height="380.52" width="837" x="135" y="60.48"/>
  </clipPath>
 </defs>
</svg>
